<?xml version="1.0" standalone="no"?>
<!DOCTYPE svg PUBLIC "-//W3C//DTD SVG 20010904//EN"
 "http://www.w3.org/TR/2001/REC-SVG-20010904/DTD/svg10.dtd">
<svg version="1.0" xmlns="http://www.w3.org/2000/svg"
 width="640.000000pt" height="640.000000pt" viewBox="0 0 640.000000 640.000000"
 preserveAspectRatio="xMidYMid meet">
<metadata>
Created by potrace 1.11, written by Peter Selinger 2001-2013
</metadata>
<g transform="translate(0.000000,640.000000) scale(0.100000,-0.100000)"
fill="#000000" stroke="none">
<path d="M407 6149 c-182 -51 -325 -188 -384 -367 -21 -65 -25 -232 -7 -296
51 -180 190 -329 359 -386 22 -8 47 -16 55 -19 8 -3 532 -6 1164 -8 832 -2
1153 0 1163 8 7 6 13 9 13 6 0 -10 111 32 158 59 118 69 209 185 249 317 21
68 24 227 6 292 -55 198 -208 348 -410 402 -15 4 -539 8 -1163 9 -1086 2
-1138 1 -1203 -17z"/>
<path d="M539 3748 c-87 -13 -113 -19 -163 -40 -46 -20 -75 -36 -151 -88 -73
-49 -158 -176 -196 -294 -23 -70 -27 -95 -25 -186 3 -120 22 -193 75 -285 39
-68 41 -70 96 -128 91 -95 229 -164 355 -176 59 -6 5300 -4 5352 2 145 17 279
95 393 228 28 33 82 138 101 196 18 54 28 270 13 279 -5 3 -7 9 -4 13 7 12
-35 131 -56 163 -11 14 -19 29 -19 33 0 8 -55 80 -80 105 -78 78 -190 141
-297 166 -62 15 -305 17 -2709 18 -1452 0 -2661 -2 -2685 -6z"/>
<path d="M3668 1205 c-2 -2 -18 -6 -36 -10 -66 -11 -189 -71 -229 -111 -7 -7
-16 -14 -20 -16 -32 -14 -136 -165 -149 -217 -2 -9 -10 -38 -18 -66 -14 -50
-15 -232 -1 -255 3 -6 9 -23 11 -37 18 -100 161 -267 275 -322 132 -63 66 -60
1304 -60 l1130 0 76 24 c41 14 103 42 136 64 324 209 337 673 25 903 -52 38
-136 79 -198 95 -29 7 -2299 15 -2306 8z"/>
</g>
</svg>
