<svg width="615" height="259" viewBox="0 0 615 259" fill="none" xmlns="http://www.w3.org/2000/svg">
<path d="M307.5 258.865C477.328 258.865 615 253.94 615 247.866C615 241.792 477.328 236.867 307.5 236.867C137.672 236.867 0 241.792 0 247.866C0 253.94 137.672 258.865 307.5 258.865Z" fill="#0A2240"/>
<path d="M581.816 186.218C582.958 184.219 583.548 181.952 583.525 179.65C583.525 173.716 579.867 168.902 575.332 168.902C570.797 168.902 567.144 173.716 567.144 179.65C567.121 181.952 567.711 184.219 568.853 186.218C567.732 188.224 567.144 190.486 567.144 192.785C567.144 195.085 567.732 197.346 568.853 199.353C567.732 201.359 567.144 203.62 567.144 205.919C567.144 208.217 567.732 210.478 568.853 212.484C567.732 214.491 567.144 216.752 567.144 219.052C567.144 221.351 567.732 223.613 568.853 225.619C567.711 227.618 567.121 229.885 567.144 232.187C567.144 238.121 570.802 242.935 575.332 242.935C579.862 242.935 583.525 238.121 583.525 232.187C583.548 229.885 582.958 227.618 581.816 225.619C582.937 223.613 583.525 221.351 583.525 219.052C583.525 216.752 582.937 214.491 581.816 212.484C582.937 210.478 583.525 208.217 583.525 205.919C583.525 203.62 582.937 201.359 581.816 199.353C582.937 197.346 583.525 195.085 583.525 192.785C583.525 190.486 582.937 188.224 581.816 186.218Z" fill="#3C4656"/>
<path d="M544.676 63.6668C543.557 62.2392 542.537 60.736 541.625 59.1678L563.147 55.6272L539.869 55.8001C537.637 50.9305 536.419 45.6557 536.291 40.2983C536.162 34.9408 537.126 29.6135 539.122 24.642L570.347 40.8784L541.552 19.6611C544.246 14.9832 547.873 10.9119 552.207 7.70105C556.54 4.49023 561.487 2.20878 566.739 0.998965C571.991 -0.210847 577.436 -0.32307 582.733 0.669286C588.03 1.66164 593.066 3.7373 597.528 6.76681C601.99 9.79633 605.781 13.7147 608.665 18.2777C611.549 22.8406 613.464 27.9503 614.291 33.288C615.118 38.6256 614.84 44.0769 613.472 49.3017C612.105 54.5266 609.678 59.4131 606.343 63.6564C608.091 65.8776 609.59 68.2837 610.816 70.8318L582.882 85.3869L612.666 75.3675C614.757 81.5643 615.273 88.186 614.168 94.6332C613.063 101.08 610.372 107.15 606.338 112.292C610.892 118.092 613.725 125.059 614.514 132.397C615.303 139.735 614.016 147.148 610.8 153.787C607.584 160.426 602.569 166.024 596.328 169.941C590.087 173.858 582.873 175.935 575.51 175.935C568.147 175.935 560.932 173.858 554.691 169.941C548.451 166.024 543.435 160.426 540.219 153.787C537.003 147.148 535.716 139.735 536.505 132.397C537.294 125.059 540.128 118.092 544.681 112.292C539.242 105.361 536.285 96.7981 536.285 87.9794C536.285 79.1608 539.242 70.598 544.681 63.6668H544.676Z" fill="#2CEBBD"/>
<path opacity="0.1" d="M614.735 87.8051C614.748 96.6261 611.79 105.193 606.338 112.118C610.892 117.918 613.725 124.885 614.514 132.223C615.303 139.561 614.016 146.973 610.8 153.613C607.584 160.252 602.569 165.85 596.328 169.767C590.087 173.683 582.873 175.76 575.51 175.76C568.147 175.76 560.932 173.683 554.691 169.767C548.451 165.85 543.435 160.252 540.219 153.613C537.003 146.973 535.716 139.561 536.505 132.223C537.294 124.885 540.128 117.918 544.681 112.118C539.399 105.429 614.735 83.3951 614.735 87.8051Z" fill="#219653"/>
<path d="M514.718 3.66602H100.28C94.3874 3.66602 89.6104 8.45434 89.6104 14.361V231.802C89.6104 237.709 94.3874 242.497 100.28 242.497H514.718C520.611 242.497 525.388 237.709 525.388 231.802V14.361C525.388 8.45434 520.611 3.66602 514.718 3.66602Z" fill="#E0F2FF"/>
<path d="M89.8721 15.4507H229.906V242.759H100.542C97.712 242.759 94.9981 241.633 92.9972 239.627C90.9962 237.621 89.8721 234.901 89.8721 232.064V15.4507Z" fill="#0066FF"/>
<path d="M525.388 14.3617V20.432H89.6104V14.3617C89.6104 12.9574 89.8864 11.5669 90.4226 10.2697C90.9589 8.97237 91.7449 7.7937 92.7358 6.80099C93.7266 5.80828 94.9029 5.02098 96.1974 4.48408C97.4918 3.94717 98.8792 3.67119 100.28 3.67188H514.718C516.119 3.67119 517.506 3.94717 518.801 4.48408C520.095 5.02098 521.271 5.80828 522.262 6.80099C523.253 7.7937 524.039 8.97237 524.575 10.2697C525.112 11.5669 525.388 12.9574 525.388 14.3617Z" fill="#3F3D56"/>
<path d="M100.845 15.4506C102.577 15.4506 103.98 14.0436 103.98 12.308C103.98 10.5725 102.577 9.16553 100.845 9.16553C99.1136 9.16553 97.71 10.5725 97.71 12.308C97.71 14.0436 99.1136 15.4506 100.845 15.4506Z" fill="#0066FF"/>
<path d="M108.683 15.4506C110.414 15.4506 111.818 14.0436 111.818 12.308C111.818 10.5725 110.414 9.16553 108.683 9.16553C106.951 9.16553 105.548 10.5725 105.548 12.308C105.548 14.0436 106.951 15.4506 108.683 15.4506Z" fill="#0066FF"/>
<path d="M116.522 15.4506C118.253 15.4506 119.657 14.0436 119.657 12.308C119.657 10.5725 118.253 9.16553 116.522 9.16553C114.79 9.16553 113.387 10.5725 113.387 12.308C113.387 14.0436 114.79 15.4506 116.522 15.4506Z" fill="#0066FF"/>
<path d="M497.046 59.7705H460.199C459.841 59.7705 459.551 60.0613 459.551 60.42V72.2149C459.551 72.5736 459.841 72.8643 460.199 72.8643H497.046C497.404 72.8643 497.694 72.5736 497.694 72.2149V60.42C497.694 60.0613 497.404 59.7705 497.046 59.7705Z" fill="#0066FF"/>
<path d="M497.046 129.828H460.199C459.841 129.828 459.551 130.118 459.551 130.477V142.272C459.551 142.631 459.841 142.921 460.199 142.921H497.046C497.404 142.921 497.694 142.631 497.694 142.272V130.477C497.694 130.118 497.404 129.828 497.046 129.828Z" fill="#0066FF"/>
<path d="M497.046 201.058H460.199C459.841 201.058 459.551 201.349 459.551 201.708V213.503C459.551 213.861 459.841 214.152 460.199 214.152H497.046C497.404 214.152 497.694 213.861 497.694 213.503V201.708C497.694 201.349 497.404 201.058 497.046 201.058Z" fill="#0066FF"/>
<path d="M279.644 156.811C293.935 156.811 305.519 145.199 305.519 130.875C305.519 116.551 293.935 104.939 279.644 104.939C265.354 104.939 253.77 116.551 253.77 130.875C253.77 145.199 265.354 156.811 279.644 156.811Z" fill="#3F3D56"/>
<path d="M302.478 144.556C302.45 144.618 302.413 144.676 302.369 144.729C302.087 145.196 301.782 145.649 301.454 146.085C298.585 150.067 294.643 153.146 290.09 154.963C289.64 155.151 289.18 155.324 288.715 155.486C288.285 155.141 287.886 154.757 287.524 154.339C286.445 153.111 285.722 151.609 285.434 149.998C284.745 150.131 284.045 150.197 283.344 150.197C283.274 150.202 283.205 150.202 283.135 150.197C277.753 150.102 273.134 146.153 271.07 140.518L270.987 140.277C269.728 136.606 269.586 132.642 270.579 128.89C270.605 128.765 270.647 128.639 270.683 128.518C272.45 122.438 277.11 118.007 282.654 117.656C282.827 117.656 282.999 117.656 283.177 117.656C283.354 117.656 283.459 117.656 283.6 117.656H283.851C290.873 117.912 296.527 124.721 296.788 133.237C298.224 134.182 299.36 135.518 300.064 137.088C300.769 138.657 301.012 140.396 300.765 142.099C301.465 142.819 302.044 143.649 302.478 144.556Z" fill="#192534"/>
<path opacity="0.1" d="M302.37 144.729C302.088 145.196 301.783 145.649 301.456 146.085C301.077 145.405 300.608 144.779 300.061 144.226C300.121 143.794 300.152 143.358 300.155 142.922C300.155 141.422 299.783 139.947 299.072 138.627C298.362 137.308 297.335 136.187 296.084 135.364C295.797 126.67 289.898 119.725 282.671 119.725C277.509 119.725 273.031 123.255 270.779 128.44C270.721 128.576 270.669 128.707 270.606 128.848C270.418 129.299 270.251 129.755 270.084 130.231C270.268 129.274 270.525 128.332 270.852 127.413L270.925 127.34C272.937 121.783 277.431 117.839 282.708 117.604C282.88 117.604 283.053 117.604 283.23 117.604C283.408 117.604 283.513 117.604 283.654 117.604H283.905C290.828 118.023 296.372 124.8 296.638 133.227C298.077 134.169 299.216 135.504 299.923 137.074C300.629 138.645 300.873 140.385 300.625 142.089C301.359 142.858 301.95 143.752 302.37 144.729Z" fill="black"/>
<path d="M275.104 137.292C275.168 137.822 275.108 138.36 274.926 138.863C274.618 139.58 273.881 140.225 274.085 140.958C274.188 141.188 274.345 141.39 274.541 141.549C274.737 141.707 274.967 141.817 275.214 141.869C277.466 142.634 279.916 142.178 282.299 142.283C283.093 142.353 283.89 142.381 284.687 142.367C285.488 142.349 286.264 142.078 286.902 141.592C285.664 140.989 284.496 140.253 283.417 139.397C283.155 139.202 282.918 138.975 282.712 138.721C282.269 138.003 282.055 137.166 282.1 136.323C282.1 135.49 282.1 134.657 282.1 133.83C280.397 133.83 278.699 133.803 276.995 133.803C276.473 133.803 274.785 133.672 274.592 134.264C274.498 134.558 274.863 135.422 274.921 135.752C275.009 136.261 275.07 136.775 275.104 137.292Z" fill="#A0616A"/>
<path opacity="0.1" d="M275.104 137.292C275.168 137.822 275.108 138.36 274.926 138.863C274.618 139.58 273.881 140.225 274.085 140.958C274.188 141.188 274.345 141.39 274.541 141.549C274.737 141.707 274.967 141.817 275.214 141.869C277.466 142.634 279.916 142.178 282.299 142.283C283.093 142.353 283.89 142.381 284.687 142.367C285.488 142.349 286.264 142.078 286.902 141.592C285.664 140.989 284.496 140.253 283.417 139.397C283.155 139.202 282.918 138.975 282.712 138.721C282.269 138.003 282.055 137.166 282.1 136.323C282.1 135.49 282.1 134.657 282.1 133.83C280.397 133.83 278.699 133.803 276.995 133.803C276.473 133.803 274.785 133.672 274.592 134.264C274.498 134.558 274.863 135.422 274.921 135.752C275.009 136.261 275.07 136.775 275.104 137.292Z" fill="black"/>
<path d="M278.604 136.537C281.92 136.537 284.608 133.843 284.608 130.519C284.608 127.196 281.92 124.501 278.604 124.501C275.289 124.501 272.601 127.196 272.601 130.519C272.601 133.843 275.289 136.537 278.604 136.537Z" fill="#A0616A"/>
<path d="M289.99 147.976C289.99 148.138 289.959 148.311 289.933 148.5C289.738 149.476 289.453 150.431 289.081 151.354C288.86 151.98 288.595 152.589 288.287 153.177C288.062 153.58 287.764 153.952 287.524 154.345L287.179 154.905C286.959 155.283 286.772 155.679 286.62 156.089C285.612 156.348 284.587 156.535 283.553 156.649C282.542 156.771 281.525 156.832 280.506 156.833C275.046 156.833 269.157 155.413 264.982 152.512C264.982 152.512 265.594 152.087 265.505 151.988C265.505 151.747 265.479 151.511 265.479 151.27C265.473 150.65 265.573 150.034 265.777 149.448C265.954 148.886 266.264 148.376 266.681 147.96C267.203 147.436 267.903 147.112 268.462 146.609C269.177 145.916 269.682 145.036 269.92 144.069C270.051 143.65 270.145 143.205 270.234 142.775C270.313 142.188 270.475 141.615 270.714 141.073C270.748 141.004 270.786 140.937 270.829 140.874C270.909 140.74 271.004 140.615 271.112 140.502C271.644 139.981 272.268 139.562 272.951 139.266C273.52 138.973 274.32 138.742 274.717 139.229V139.266C274.847 139.566 274.957 139.874 275.046 140.188C275.365 140.848 276.253 140.931 276.974 140.916C279.524 140.862 282.069 140.649 284.592 140.277L285.815 140.078C286.698 139.931 287.315 140.706 287.811 141.46C289.097 143.404 290.183 145.64 289.99 147.976Z" fill="#0066FF"/>
<path opacity="0.1" d="M271.656 148.385C271.096 148.51 270.772 149.076 270.511 149.589C270.016 150.433 269.798 151.412 269.889 152.386C269.874 152.769 269.915 153.152 270.01 153.523C270.106 153.896 270.342 154.219 270.668 154.424" stroke="black" stroke-miterlimit="10"/>
<path d="M286.646 127.863C287.099 126.086 284.554 123.899 280.961 122.979C277.369 122.058 274.089 122.752 273.636 124.529C273.183 126.306 275.728 128.492 279.321 129.413C282.913 130.334 286.193 129.64 286.646 127.863Z" fill="#192534"/>
<path opacity="0.1" d="M279.655 128.152C276.462 127.335 274.1 125.533 273.907 123.878C273.759 124.064 273.652 124.28 273.594 124.512C273.139 126.287 275.684 128.471 279.273 129.393C282.863 130.315 286.144 129.618 286.589 127.822C286.639 127.623 286.653 127.418 286.63 127.214C285.674 128.534 282.785 128.953 279.655 128.152Z" fill="black"/>
<path d="M290.147 152.245C290.147 153.156 290.147 154.062 290.09 154.963C289.64 155.151 289.181 155.324 288.716 155.487C288.031 155.725 287.333 155.924 286.626 156.084C285.618 156.342 284.593 156.53 283.558 156.644C283.376 154.476 282.963 152.386 283.167 150.186C283.336 148.501 283.914 146.883 284.849 145.473C285.216 144.855 285.741 144.347 286.37 144.001C286.684 143.834 287.039 143.76 287.393 143.787C287.747 143.815 288.087 143.944 288.371 144.158C288.726 144.53 288.975 144.991 289.092 145.493C289.444 146.476 289.727 147.482 289.938 148.505C289.938 148.615 289.975 148.735 289.991 148.851C290.135 149.976 290.188 151.111 290.147 152.245Z" fill="#A0616A"/>
<path d="M305.514 202.106C305.526 206.443 304.448 210.714 302.379 214.524C302.149 214.943 301.909 215.367 301.637 215.786C301.609 215.848 301.572 215.907 301.528 215.959C301.246 216.426 300.941 216.879 300.613 217.315C298.628 220.075 296.115 222.411 293.22 224.187L293.068 224.292C292.117 224.864 291.131 225.377 290.116 225.826C289.834 225.952 289.541 226.072 289.248 226.193C288.956 226.313 288.684 226.423 288.392 226.518C288.245 226.581 288.088 226.633 287.937 226.685C287.92 226.683 287.902 226.683 287.885 226.685C287.566 226.8 287.237 226.9 286.913 227L286.667 227.057C286.375 227.146 286.082 227.22 285.789 227.282C284.78 227.542 283.753 227.729 282.717 227.843C281.713 227.965 280.703 228.026 279.692 228.026C279.587 228.026 279.483 228.026 279.378 228.026C277.976 228.022 276.577 227.892 275.198 227.639L274.947 227.597C274.691 227.555 274.425 227.502 274.179 227.439L273.693 227.329C273.178 227.216 272.668 227.076 272.167 226.91C271.147 226.604 270.146 226.231 269.173 225.795L269.064 225.748C267.639 225.101 266.276 224.324 264.993 223.428C264.884 223.363 264.779 223.291 264.68 223.213C261.067 220.631 258.178 217.162 256.289 213.139C254.4 209.115 253.576 204.673 253.894 200.237C254.212 195.802 255.663 191.523 258.107 187.812C260.551 184.101 263.906 181.082 267.85 179.046C271.794 177.01 276.193 176.024 280.627 176.184C285.06 176.344 289.378 177.644 293.166 179.959C296.953 182.274 300.083 185.526 302.255 189.404C304.427 193.281 305.567 197.654 305.567 202.1L305.514 202.106Z" fill="#3F3D56"/>
<path d="M285.903 195.857C285.842 197.274 285.237 198.613 284.215 199.594C283.192 200.575 281.832 201.122 280.417 201.122C279.002 201.122 277.642 200.575 276.62 199.594C275.597 198.613 274.992 197.274 274.931 195.857C274.931 195.768 274.931 195.679 274.931 195.596C274.931 194.137 275.509 192.738 276.538 191.707C277.566 190.676 278.962 190.096 280.417 190.096C281.872 190.096 283.268 190.676 284.297 191.707C285.325 192.738 285.903 194.137 285.903 195.596C285.898 195.679 285.903 195.768 285.903 195.857Z" fill="#192534"/>
<path opacity="0.1" d="M285.903 195.858C285.842 197.275 285.237 198.613 284.215 199.594C283.192 200.575 281.832 201.122 280.417 201.122C279.002 201.122 277.642 200.575 276.62 199.594C275.597 198.613 274.992 197.275 274.931 195.858C274.931 195.768 274.931 195.679 274.931 195.596C276.479 194.326 278.417 193.632 280.417 193.632C282.417 193.632 284.356 194.326 285.903 195.596C285.898 195.679 285.903 195.768 285.903 195.858Z" fill="black"/>
<path d="M280.413 211.497C285.2 211.497 289.081 207.607 289.081 202.808C289.081 198.009 285.2 194.119 280.413 194.119C275.625 194.119 271.744 198.009 271.744 202.808C271.744 207.607 275.625 211.497 280.413 211.497Z" fill="#192534"/>
<path d="M275.161 194.642C275.162 193.309 275.646 192.022 276.522 191.019C277.399 190.016 278.608 189.366 279.927 189.19C279.15 189.085 278.36 189.147 277.61 189.373C276.86 189.599 276.166 189.983 275.577 190.5C274.987 191.016 274.514 191.653 274.19 192.368C273.866 193.083 273.698 193.86 273.698 194.645C273.698 195.43 273.866 196.206 274.19 196.921C274.514 197.636 274.987 198.273 275.577 198.79C276.166 199.307 276.86 199.691 277.61 199.917C278.36 200.143 279.15 200.205 279.927 200.1C278.607 199.923 277.397 199.273 276.521 198.269C275.644 197.265 275.161 195.976 275.161 194.642Z" fill="#192534"/>
<path d="M270.631 206.337C269.634 205.454 268.991 204.238 268.821 202.916C268.651 201.593 268.965 200.254 269.706 199.146C269.522 199.31 269.347 199.485 269.184 199.67C268.686 200.208 268.302 200.841 268.052 201.531C267.802 202.221 267.693 202.954 267.73 203.687C267.767 204.42 267.95 205.139 268.268 205.8C268.586 206.461 269.033 207.051 269.582 207.537C270.131 208.022 270.771 208.393 271.465 208.627C272.16 208.86 272.893 208.953 273.624 208.898C274.354 208.843 275.066 208.643 275.717 208.308C276.369 207.974 276.947 207.512 277.419 206.95C277.578 206.767 277.727 206.575 277.863 206.374C276.857 207.247 275.57 207.724 274.24 207.717C272.91 207.71 271.628 207.22 270.631 206.337Z" fill="#192534"/>
<path d="M275.878 213.827C275.426 213.916 274.99 214.07 274.582 214.283C273.861 214.806 273.887 215.854 274.101 216.708C274.592 218.656 275.794 220.526 277.633 221.322C278.772 221.743 279.985 221.921 281.197 221.846C282.508 221.846 283.992 221.668 284.807 220.631C285.174 220.084 285.425 219.467 285.544 218.818C285.946 217.247 286.354 215.624 286.208 214C285.413 214.068 284.525 214.115 283.898 213.612C283.271 213.109 283.13 212.151 282.853 211.355C282.823 211.227 282.751 211.113 282.649 211.03C282.535 210.978 282.408 210.96 282.284 210.978C281.45 211.014 280.614 210.979 279.786 210.873C279.263 210.805 277.999 210.266 277.612 210.721C277.33 211.051 277.508 212.057 277.288 212.523C277.151 212.823 276.956 213.093 276.713 213.317C276.471 213.541 276.187 213.714 275.878 213.827Z" fill="#FFC1C7"/>
<path opacity="0.05" d="M275.878 213.827C275.426 213.916 274.99 214.07 274.582 214.283C273.861 214.806 273.887 215.854 274.101 216.708C274.592 218.656 275.794 220.526 277.633 221.322C278.772 221.743 279.985 221.921 281.197 221.846C282.508 221.846 283.992 221.668 284.807 220.631C285.174 220.084 285.425 219.467 285.544 218.818C285.946 217.247 286.354 215.624 286.208 214C285.413 214.068 284.525 214.115 283.898 213.612C283.271 213.109 283.13 212.151 282.853 211.355C282.823 211.227 282.751 211.113 282.649 211.03C282.535 210.978 282.408 210.96 282.284 210.978C281.45 211.014 280.614 210.979 279.786 210.873C279.263 210.805 277.999 210.266 277.612 210.721C277.33 211.051 277.508 212.057 277.288 212.523C277.151 212.823 276.956 213.093 276.713 213.317C276.471 213.541 276.187 213.714 275.878 213.827Z" fill="black"/>
<path d="M280.293 213.079C283.64 213.079 286.354 210.359 286.354 207.003C286.354 203.648 283.64 200.928 280.293 200.928C276.945 200.928 274.231 203.648 274.231 207.003C274.231 210.359 276.945 213.079 280.293 213.079Z" fill="#FFC1C7"/>
<path d="M293.58 220.165C293.538 220.217 293.496 220.28 293.449 220.333L293.193 220.668C291.902 222.218 290.857 223.958 290.094 225.827C289.812 225.953 289.52 226.073 289.227 226.193C288.934 226.314 288.663 226.424 288.37 226.518C288.224 226.581 288.067 226.633 287.916 226.686C287.898 226.683 287.881 226.683 287.863 226.686C287.545 226.801 287.215 226.901 286.891 227L286.646 227.058C286.353 227.147 286.061 227.22 285.768 227.283C284.758 227.542 283.732 227.729 282.696 227.843C281.692 227.965 280.681 228.026 279.67 228.027C279.566 228.027 279.461 228.027 279.357 228.027C277.955 228.022 276.556 227.893 275.177 227.639L274.926 227.597C274.67 227.555 274.403 227.503 274.158 227.44L273.672 227.33C273.156 227.217 272.647 227.077 272.146 226.911C272.286 226.033 272.676 225.215 273.269 224.554C272.094 223.145 270.16 222.59 268.912 221.26C268.803 221.133 268.702 221 268.609 220.862C268.543 220.761 268.489 220.654 268.447 220.542C268.409 220.454 268.386 220.36 268.379 220.265C268.339 220.072 268.323 219.875 268.332 219.678C268.3 218.191 268.368 216.494 269.518 215.561C270.082 215.165 270.717 214.881 271.388 214.723C272.555 214.357 273.691 213.898 274.785 213.351C274.885 213.585 274.952 213.832 274.983 214.084C275.088 214.692 275.077 215.331 275.218 215.933C275.492 217.007 276.155 217.941 277.079 218.552C277.999 219.156 279.047 219.538 280.14 219.668C281.217 219.825 282.074 219.264 283.087 218.882C283.537 218.738 283.951 218.503 284.305 218.191C284.763 217.661 285.007 216.979 284.989 216.279C284.989 215.587 284.911 214.896 284.953 214.184C284.954 214.111 284.963 214.04 284.979 213.969C284.98 213.787 285.039 213.61 285.145 213.462C285.252 213.315 285.402 213.205 285.575 213.147C285.77 213.131 285.967 213.167 286.144 213.252L288.098 214.001C288.945 214.294 289.761 214.671 290.533 215.127C291.387 215.682 292.104 216.424 292.632 217.296C293.159 218.169 293.483 219.149 293.58 220.165Z" fill="#0066FF"/>
<path opacity="0.1" d="M275.151 227.644L274.901 227.602C274.645 227.56 274.378 227.508 274.132 227.445L273.647 227.335C273.131 227.222 272.622 227.082 272.121 226.916C271.1 226.609 270.1 226.236 269.127 225.8C268.637 224.205 268.46 222.529 268.604 220.866C268.668 220.153 268.815 219.45 269.043 218.771C270.14 219.819 272.011 219.227 273.255 220.065C273.592 220.304 273.868 220.62 274.059 220.987C274.407 221.658 274.644 222.382 274.759 223.129C274.838 223.538 274.911 223.951 274.974 224.365C274.974 224.438 274.974 224.496 274.974 224.559C274.974 224.622 274.974 224.69 274.974 224.758C275.016 225.051 275.052 225.355 275.068 225.654C275.151 226.329 275.151 226.979 275.151 227.644Z" fill="black"/>
<path d="M274.9 227.602C274.644 227.56 274.377 227.507 274.132 227.445L273.646 227.335C273.131 227.221 272.621 227.081 272.12 226.916C271.099 226.609 270.099 226.236 269.126 225.8L269.016 225.753C268.416 223.991 268.19 222.123 268.353 220.269C268.428 219.6 268.571 218.94 268.781 218.3C269.879 219.347 271.749 218.766 272.993 219.604C273.472 219.949 273.836 220.431 274.038 220.987C274.241 221.525 274.393 222.08 274.492 222.647C274.607 223.26 274.717 223.873 274.79 224.496C274.807 224.582 274.815 224.67 274.816 224.758C274.816 224.815 274.816 224.889 274.816 224.946C274.816 225.004 274.816 225.093 274.816 225.171C274.916 225.973 274.91 226.79 274.9 227.602Z" fill="#0066FF"/>
<path opacity="0.1" d="M293.047 224.292C292.096 224.864 291.11 225.377 290.095 225.827C289.813 225.952 289.52 226.073 289.228 226.193C288.935 226.314 288.663 226.424 288.371 226.518C288.224 226.581 288.068 226.633 287.916 226.686C287.899 226.683 287.881 226.683 287.864 226.686C287.545 226.801 287.216 226.9 286.892 227L286.646 227.057C286.646 226.591 286.646 226.109 286.699 225.638C286.735 225.266 286.777 224.894 286.829 224.522C286.829 224.454 286.829 224.386 286.855 224.318C286.861 224.275 286.861 224.231 286.855 224.187C286.918 223.831 286.986 223.47 287.054 223.114C287.162 222.364 287.399 221.64 287.754 220.971C287.95 220.612 288.228 220.303 288.564 220.071C289.808 219.233 291.699 219.803 292.744 218.777C292.95 219.385 293.092 220.014 293.167 220.652C293.309 221.864 293.269 223.091 293.047 224.292Z" fill="black"/>
<path d="M293.198 224.187L293.047 224.292C292.095 224.865 291.11 225.377 290.095 225.827C289.812 225.952 289.52 226.073 289.227 226.193C288.935 226.314 288.663 226.424 288.37 226.518C288.224 226.581 288.067 226.633 287.916 226.686C287.898 226.683 287.881 226.683 287.863 226.686C287.545 226.801 287.216 226.9 286.892 227C286.892 226.382 286.892 225.769 286.944 225.156C286.944 224.999 286.944 224.837 286.986 224.68C286.986 224.612 286.986 224.533 286.986 224.465C286.986 224.397 286.986 224.35 286.986 224.303C287.064 223.737 287.158 223.187 287.273 222.632C287.372 222.065 287.525 221.509 287.728 220.972C287.929 220.416 288.294 219.934 288.773 219.589C290.016 218.751 291.908 219.322 292.953 218.285C293.177 218.943 293.325 219.625 293.392 220.317C293.532 221.609 293.467 222.916 293.198 224.187Z" fill="#0066FF"/>
<path d="M280.172 206.149C284.189 206.149 287.445 203.973 287.445 201.289C287.445 198.604 284.189 196.428 280.172 196.428C276.155 196.428 272.898 198.604 272.898 201.289C272.898 203.973 276.155 206.149 280.172 206.149Z" fill="#192534"/>
<path opacity="0.05" d="M274.127 226.712C274.127 226.822 274.127 226.937 274.127 227.057C274.127 227.178 274.127 227.288 274.127 227.403C274.125 227.417 274.125 227.431 274.127 227.445L273.641 227.335C273.633 227.243 273.633 227.15 273.641 227.057C273.64 226.572 273.744 226.091 273.945 225.65C274.146 225.208 274.44 224.814 274.806 224.496C274.854 224.445 274.908 224.401 274.968 224.365C275.248 224.137 275.567 223.96 275.908 223.841C276.222 223.72 276.555 223.656 276.891 223.653C276.936 223.648 276.981 223.648 277.027 223.653C277.11 223.648 277.194 223.648 277.277 223.653H277.105C276.305 223.737 275.562 224.11 275.015 224.7C274.954 224.757 274.9 224.82 274.853 224.889C274.435 225.41 274.182 226.045 274.127 226.712Z" fill="black"/>
<path d="M279.446 227.057C279.445 227.385 279.407 227.712 279.331 228.032C277.929 228.027 276.53 227.898 275.151 227.644L274.9 227.602C274.644 227.56 274.377 227.508 274.132 227.445V227.403C274.132 227.288 274.132 227.178 274.132 227.057C274.132 226.937 274.132 226.822 274.132 226.712C274.176 226.009 274.415 225.332 274.822 224.758C274.868 224.686 274.922 224.619 274.984 224.559C275.227 224.254 275.541 224.013 275.898 223.857C276.172 223.726 276.472 223.658 276.776 223.658C276.81 223.653 276.846 223.653 276.88 223.658C276.952 223.653 277.023 223.653 277.094 223.658C278.416 223.883 279.446 225.318 279.446 227.057Z" fill="#2A53E8"/>
<path opacity="0.05" d="M288.371 226.518C288.224 226.581 288.067 226.633 287.916 226.686C287.841 225.935 287.513 225.233 286.986 224.695L286.829 224.538C286.307 224.069 285.654 223.771 284.959 223.684H284.786C284.866 223.679 284.946 223.679 285.026 223.684C285.073 223.679 285.121 223.679 285.168 223.684C285.505 223.692 285.839 223.756 286.155 223.873C286.407 223.96 286.647 224.076 286.871 224.219C286.929 224.248 286.982 224.287 287.028 224.334C287.384 224.591 287.686 224.917 287.917 225.291C288.147 225.666 288.302 226.083 288.371 226.518Z" fill="black"/>
<path d="M287.916 226.686C287.898 226.684 287.881 226.684 287.863 226.686C287.544 226.801 287.215 226.901 286.891 227L286.646 227.058C286.353 227.147 286.061 227.22 285.768 227.283C284.758 227.542 283.732 227.729 282.696 227.843C282.643 227.58 282.616 227.311 282.617 227.042C282.617 225.303 283.662 223.868 284.974 223.669C285.043 223.664 285.113 223.664 285.183 223.669C285.216 223.664 285.249 223.664 285.282 223.669C285.589 223.668 285.893 223.736 286.17 223.868C286.43 223.984 286.667 224.145 286.87 224.345C286.928 224.388 286.98 224.437 287.027 224.491C287.551 225.108 287.863 225.878 287.916 226.686Z" fill="#2A53E8"/>
<path opacity="0.1" d="M280.172 205.667C276.274 205.667 273.091 203.624 272.903 201.053C272.903 201.131 272.903 201.21 272.903 201.294C272.903 203.981 276.164 206.154 280.182 206.154C284.2 206.154 287.455 203.981 287.455 201.294C287.455 201.21 287.455 201.131 287.455 201.053C287.246 203.624 284.064 205.667 280.172 205.667Z" fill="black"/>
<path d="M253.77 60.8231C253.761 65.1587 254.839 69.427 256.905 73.236C257.14 73.6603 257.38 74.0845 257.647 74.4983C257.677 74.5609 257.716 74.6191 257.762 74.6711C258.049 75.1344 258.362 75.5819 258.697 76.0119C259.782 77.5252 261.033 78.9114 262.428 80.1443C262.686 80.393 262.959 80.6273 263.243 80.8462C264.138 81.5959 265.088 82.277 266.085 82.8836L266.242 82.9883C267.193 83.5594 268.177 84.0736 269.189 84.5282L270.062 84.8895C270.349 85.01 270.621 85.1252 270.919 85.2195C271.065 85.2771 271.216 85.3295 271.373 85.3819H271.446C271.763 85.4971 272.087 85.6018 272.418 85.6961L272.658 85.7537C272.951 85.8428 273.249 85.9213 273.542 85.9789C273.939 86.0837 274.331 86.1727 274.738 86.2461C275.349 86.3665 275.982 86.4713 276.609 86.5446C277.613 86.6648 278.623 86.7243 279.634 86.7227H279.942C281.344 86.714 282.743 86.5826 284.122 86.3299C284.207 86.3214 284.291 86.3074 284.373 86.288C284.629 86.2461 284.896 86.1937 285.141 86.1308C285.309 86.0994 285.46 86.0627 285.627 86.0208C286.15 85.9056 286.672 85.7694 287.153 85.6071C287.461 85.5076 287.764 85.4133 288.067 85.3085C288.679 85.0938 289.29 84.8633 289.875 84.6015C289.967 84.5712 290.056 84.5344 290.142 84.4915L290.257 84.4391C291.03 84.0899 291.783 83.7006 292.514 83.2711C293.136 82.915 293.742 82.5274 294.327 82.1189H294.364C294.459 82.0632 294.55 82.0002 294.635 81.9303C298.252 79.3515 301.146 75.8834 303.038 71.8596C304.931 67.8358 305.759 63.3915 305.443 58.9541C305.127 54.5167 303.678 50.2354 301.234 46.5219C298.79 42.8084 295.434 39.7875 291.489 37.7498C287.544 35.7121 283.142 34.7261 278.706 34.8865C274.271 35.0469 269.952 36.3484 266.163 38.6659C262.375 40.9833 259.245 44.2387 257.074 48.1191C254.904 51.9995 253.766 56.3744 253.77 60.8231Z" fill="#3F3D56"/>
<path d="M285.387 71.0994C285.768 71.4361 286.034 71.8853 286.144 72.3826C285.392 72.5816 284.624 72.2098 283.924 71.8589C281.75 70.8367 279.455 70.0958 277.094 69.6538C276.905 69.6363 276.725 69.5675 276.572 69.4548C276.453 69.2945 276.392 69.0989 276.398 68.8994C276.404 68.7 276.476 68.5082 276.603 68.3549C276.865 68.0826 277.356 68.1193 277.711 68.1035C279.127 68.0309 280.543 68.2583 281.865 68.7709C283.188 69.2835 284.388 70.0698 285.387 71.0785V71.0994Z" fill="#0066FF"/>
<path d="M277.743 69.015C277.586 69.4073 277.352 69.764 277.055 70.0637C276.758 70.3633 276.404 70.5999 276.013 70.7591C275.59 70.911 275.135 70.9372 274.707 71.0576C274.488 71.1035 274.282 71.1997 274.106 71.3387C273.93 71.4778 273.789 71.6559 273.693 71.859C273.636 72.0418 273.609 72.233 273.615 72.4246C273.547 74.2316 273.495 76.0909 274.216 77.7669C274.838 79.202 275.977 80.3333 277.105 81.407C278.422 82.6692 279.817 83.9472 281.552 84.5128C282.566 84.8428 283.762 84.8795 284.603 84.2248C284.933 83.9377 285.22 83.6043 285.455 83.2349C286.042 82.4645 286.533 81.6256 286.918 80.7366C287.634 78.893 287.394 76.8294 287.143 74.8653C287.141 74.7486 287.097 74.6366 287.017 74.5511C286.908 74.483 286.777 74.4604 286.652 74.4882C286.203 74.5339 285.751 74.4372 285.36 74.2116C284.969 73.9861 284.659 73.6431 284.473 73.2312C284.365 72.8573 284.324 72.4671 284.353 72.0789L284.389 69.8373C284.407 69.5967 284.378 69.355 284.306 69.125C284.1 68.7514 283.768 68.4635 283.37 68.3132C282.149 67.7004 280.876 67.1974 279.566 66.81C278.992 66.6424 278.553 66.3596 278.297 66.9776C278.041 67.5956 278.041 68.3656 277.743 69.015Z" fill="#FBBEBE"/>
<path opacity="0.1" d="M277.743 69.015C277.586 69.4073 277.352 69.764 277.055 70.0637C276.758 70.3633 276.404 70.5999 276.013 70.7591C275.59 70.911 275.135 70.9372 274.707 71.0576C274.488 71.1035 274.282 71.1997 274.106 71.3387C273.93 71.4778 273.789 71.6559 273.693 71.859C273.636 72.0418 273.609 72.233 273.615 72.4246C273.547 74.2316 273.495 76.0909 274.216 77.7669C274.838 79.202 275.977 80.3333 277.105 81.407C278.422 82.6692 279.817 83.9472 281.552 84.5128C282.566 84.8428 283.762 84.8795 284.603 84.2248C284.933 83.9377 285.22 83.6043 285.455 83.2349C286.042 82.4645 286.533 81.6256 286.918 80.7366C287.634 78.893 287.394 76.8294 287.143 74.8653C287.141 74.7486 287.097 74.6366 287.017 74.5511C286.908 74.483 286.777 74.4604 286.652 74.4882C286.203 74.5339 285.751 74.4372 285.36 74.2116C284.969 73.9861 284.659 73.6431 284.473 73.2312C284.365 72.8573 284.324 72.4671 284.353 72.0789L284.389 69.8373C284.407 69.5967 284.378 69.355 284.306 69.125C284.1 68.7514 283.768 68.4635 283.37 68.3132C282.149 67.7004 280.876 67.1974 279.566 66.81C278.992 66.6424 278.553 66.3596 278.297 66.9776C278.041 67.5956 278.041 68.3656 277.743 69.015Z" fill="black"/>
<path d="M283.794 70.8323C287.563 70.8323 290.618 67.7698 290.618 63.9921C290.618 60.2143 287.563 57.1519 283.794 57.1519C280.025 57.1519 276.97 60.2143 276.97 63.9921C276.97 67.7698 280.025 70.8323 283.794 70.8323Z" fill="#FBBEBE"/>
<path d="M274.728 86.2777C275.339 86.3982 275.971 86.503 276.598 86.5763C277.602 86.6965 278.613 86.756 279.624 86.7544H279.932C281.334 86.7457 282.733 86.6143 284.112 86.3615C284.197 86.3531 284.28 86.3391 284.363 86.3196C284.619 86.2777 284.886 86.2254 285.131 86.1625C285.298 86.1311 285.45 86.0944 285.617 86.0525C286.14 85.9373 286.662 85.8011 287.143 85.6388C287.451 85.5393 287.754 85.445 288.057 85.3402C288.669 85.1255 289.28 84.895 289.865 84.6332C289.715 84.1675 289.591 83.6936 289.494 83.2138C289.326 82.1894 289.259 81.1507 289.296 80.1132C289.296 79.2804 289.332 78.4529 289.296 77.6253C289.309 76.9541 289.212 76.2852 289.008 75.6456C288.905 75.326 288.738 75.0304 288.52 74.7759C288.301 74.5214 288.033 74.3131 287.733 74.1633C286.955 73.8177 285.784 73.6396 285.016 74.0272C284.928 74.0745 284.845 74.1288 284.765 74.1895C284.598 74.3298 284.469 74.5099 284.389 74.7133C284.138 75.3418 283.867 75.9755 283.626 76.604C283.471 77.0419 283.266 77.4602 283.015 77.8506C282.636 78.364 282.107 78.747 281.501 78.9468C280.896 79.1466 280.244 79.1533 279.634 78.9662C279.558 78.941 279.483 78.9113 279.41 78.8771C278.365 78.4529 277.408 77.5363 276.316 77.7825C276.014 77.8631 275.734 78.0115 275.498 78.2166C275.262 78.4217 275.075 78.678 274.953 78.9662C274.937 78.9963 274.925 79.0279 274.916 79.0604C274.696 79.6082 274.569 80.1887 274.54 80.7783C274.382 82.6124 274.445 84.4588 274.728 86.2777Z" fill="#F2F2F2"/>
<path d="M262.428 80.1606C262.687 80.4093 262.959 80.6436 263.243 80.8625C264.138 81.6122 265.088 82.2932 266.085 82.8999L266.242 83.0046C267.193 83.5757 268.177 84.0899 269.189 84.5444L270.062 84.9058C270.349 85.0263 270.621 85.1415 270.919 85.2358C271.065 85.2934 271.216 85.3458 271.373 85.3982H271.446C271.763 85.5134 272.087 85.6181 272.418 85.7124L272.659 85.77C272.951 85.8591 273.249 85.9376 273.542 85.9952C273.939 86.1 274.331 86.189 274.738 86.2624C275.35 86.3828 275.982 86.4876 276.609 86.5609C277.613 86.6811 278.623 86.7406 279.634 86.739H279.942C281.345 86.7303 282.743 86.5989 284.123 86.3462C284.207 86.3377 284.291 86.3237 284.373 86.3042C284.629 86.2623 284.896 86.21 285.141 86.1471C285.309 86.1157 285.46 86.079 285.627 86.0371C286.15 85.9219 286.672 85.7857 287.153 85.6234C287.461 85.5239 287.764 85.4296 288.068 85.3248C288.679 85.1101 289.29 84.8796 289.875 84.6178C289.967 84.5875 290.056 84.5507 290.142 84.5078L290.257 84.4554C291.03 84.1062 291.783 83.7169 292.514 83.2874C293.027 81.9163 293.463 80.5175 293.82 79.0974C293.818 79.0695 293.818 79.0415 293.82 79.0136C293.005 77.5628 292.284 76.0544 291.474 74.6036C291.244 74.0574 290.874 73.5818 290.401 73.225C289.929 72.8682 289.371 72.6427 288.783 72.5715C288.217 72.3843 287.628 72.275 287.033 72.2467C286.695 72.2151 286.359 72.1574 286.03 72.0739C285.35 71.922 284.598 71.7754 284.347 72.0739C284.336 72.0818 284.327 72.092 284.321 72.1038C284.315 72.1155 284.311 72.1286 284.311 72.142C284.217 72.4938 284.26 72.8682 284.431 73.1895C284.546 73.5194 284.697 73.8651 284.776 74.148C284.822 74.2829 284.849 74.4242 284.854 74.5669C284.873 75.1805 284.852 75.7945 284.791 76.4053C284.645 77.2957 284.154 78.0813 283.924 78.9455C283.819 79.3541 283.767 79.7783 283.699 80.1921C283.554 81.1265 283.311 82.0429 282.973 82.9261C282.912 83.1136 282.822 83.2904 282.707 83.4498C282.278 83.9736 281.567 83.7745 280.893 83.675C280.402 83.256 280.428 82.5123 280.371 81.8838C280.227 80.8281 279.905 79.8045 279.42 78.8565L279.242 78.4794C278.72 77.3952 278.197 76.3163 277.706 75.2269C277.074 73.8756 276.421 72.3305 276.943 70.9321C277.095 70.5131 277.34 70.1412 277.507 69.7379C277.535 69.6786 277.557 69.6174 277.575 69.5546C277.623 69.4002 277.65 69.2398 277.654 69.078C277.672 68.9334 277.66 68.7865 277.619 68.6467C277.578 68.5069 277.508 68.3773 277.413 68.2662C277.386 68.2235 277.35 68.1862 277.309 68.1562C277.291 68.1377 277.27 68.1233 277.246 68.1143C277.074 68.0152 276.881 67.9587 276.683 67.9496C276.485 67.9404 276.287 67.979 276.107 68.0619C275.901 68.137 275.7 68.2263 275.506 68.3291C274.48 68.9083 273.491 69.5503 272.544 70.2512C272.266 70.4167 272.049 70.6686 271.927 70.9688C271.905 71.1678 271.872 71.3653 271.828 71.5606C271.681 71.9325 271.237 72.0425 270.856 72.1263C269.278 72.4914 267.792 73.1753 266.487 74.1362C265.183 75.0971 264.088 76.3148 263.269 77.7147C262.992 78.1648 262.774 78.6489 262.621 79.155C262.528 79.4841 262.463 79.8205 262.428 80.1606Z" fill="#0066FF"/>
<path d="M286.797 60.132C285.872 61.08 284.394 61.1167 283.072 61.0957L283.113 60.572L281.259 61.2372C281.741 60.8788 282.153 60.4351 282.476 59.9278C282.347 59.8315 282.193 59.7749 282.033 59.7646C281.872 59.7544 281.712 59.791 281.572 59.8701C281.294 60.0322 281.062 60.263 280.898 60.5406C280.371 61.3315 280.036 62.235 279.919 63.1788C279.802 64.1227 279.906 65.0809 280.224 65.9771C280.035 66.0702 279.825 66.1119 279.615 66.0981C279.405 66.0843 279.203 66.0155 279.027 65.8985C278.679 65.6591 278.411 65.3194 278.259 64.9244C278.15 64.673 278.035 64.4006 277.773 64.3011C277.661 64.2734 277.542 64.2841 277.436 64.3315C277.33 64.379 277.243 64.4604 277.188 64.563C277.078 64.7662 277.034 64.9987 277.063 65.2281C277.099 65.7519 277.491 66.2757 277.585 66.7994C277.679 67.3232 278.453 67.7422 278.045 68.0931C277.567 68.2732 277.069 68.3912 276.561 68.444C276.461 68.4137 276.369 68.3592 276.294 68.2853C276.22 68.2113 276.164 68.1202 276.133 68.0197C275.72 67.1084 275.866 66.0452 275.61 65.0763C275.373 64.3071 275.009 63.5831 274.534 62.9341C274.419 62.7358 274.283 62.5513 274.126 62.3842C273.962 62.2637 273.826 62.108 273.729 61.9285C273.661 61.7399 273.792 61.4624 273.99 61.499C273.666 61.1842 273.317 60.8969 272.945 60.6401C273.311 60.1792 273.666 59.7078 273.99 59.2364C274.111 59.0688 274.236 58.8645 274.147 58.6812C274.097 58.5958 274.025 58.5253 273.938 58.477L273.013 57.8485C273.013 57.4085 273.886 57.5709 274.022 57.1571C274.055 57.0479 274.055 56.9311 274.022 56.8219L273.698 55.6382L274.931 56.1987C275.073 56.2809 275.237 56.3191 275.401 56.3086C275.725 56.2615 275.882 55.8792 275.924 55.5492C275.89 55.2191 275.933 54.8858 276.049 54.575C276.608 54.575 277.167 54.575 277.721 54.575C277.758 54.2949 277.685 54.0115 277.517 53.7841L281.635 53.5537C282.335 53.4738 283.043 53.5235 283.725 53.7003C283.942 53.8031 284.179 53.8568 284.42 53.8575C284.655 53.8575 284.895 53.6113 284.827 53.3809C285.445 53.7302 286.01 54.1658 286.505 54.6745C286.636 54.8348 286.798 54.9682 286.98 55.0673C287.073 55.1152 287.177 55.1342 287.28 55.1221C287.384 55.11 287.481 55.0672 287.56 54.9993C287.675 54.8788 287.727 54.664 287.894 54.6536C288.062 54.6431 288.083 54.7374 288.145 54.8159C288.381 55.1192 288.573 55.4542 288.715 55.8111C289.011 55.7708 289.3 55.6933 289.577 55.5806C289.448 55.7186 289.364 55.8928 289.336 56.0799C289.308 56.267 289.337 56.4582 289.42 56.6281C289.556 56.979 289.807 57.2776 289.974 57.6128C290.139 57.9752 290.25 58.3599 290.303 58.7546C290.387 59.2469 290.387 59.8702 289.953 60.1111C289.747 60.1822 289.526 60.1944 289.314 60.1463C289.101 60.0981 288.907 59.9916 288.751 59.8387C287.753 59.1264 287.571 59.3359 286.797 60.132Z" fill="#192534"/>
<path d="M263.242 80.8624C264.137 81.6121 265.087 82.2932 266.085 82.8998L266.241 83.0045C267.193 83.5756 268.177 84.0898 269.188 84.5444L270.061 84.9058C270.348 85.0262 270.62 85.1414 270.918 85.2357C271.064 85.2933 271.216 85.3457 271.373 85.3981C271.19 84.8743 271.069 84.3506 270.908 83.8268C270.476 82.4277 269.706 81.1574 268.666 80.1291C267.767 79.2283 266.335 77.9136 265.008 78.7098C264.604 78.983 264.25 79.3251 263.963 79.7206C263.709 80.012 263.491 80.3339 263.315 80.6791C263.289 80.7262 263.268 80.7891 263.242 80.8624Z" fill="#0066FF"/>
<path d="M288.089 85.3347C288.7 85.1199 289.312 84.8895 289.897 84.6276C289.988 84.5973 290.077 84.5606 290.163 84.5176L290.278 84.4653C291.052 84.1161 291.804 83.7268 292.535 83.2973C293.157 82.9411 293.763 82.5536 294.349 82.145H294.385C294.338 81.5611 294.338 80.9744 294.385 80.3905C294.415 80.1946 294.403 79.9945 294.349 79.8039C294.276 79.6529 294.177 79.5164 294.056 79.4006C293.979 79.3235 293.908 79.2412 293.842 79.1544C293.251 78.4892 292.771 77.7717 291.752 77.8765C290.733 77.9812 289.855 78.8611 289.427 79.8405C289.38 79.9347 289.341 80.0329 289.312 80.1338C289.02 81.0437 288.793 81.9731 288.632 82.915C288.496 83.4963 288.324 84.0567 288.199 84.6381C288.167 84.8528 288.12 85.0938 288.089 85.3347Z" fill="#0066FF"/>
<path d="M170.304 239.648L170.073 239.775L170.304 239.648Z" fill="url(#paint0_linear)"/>
<path d="M138.205 211.361C136.189 217.185 138.545 226.639 139.637 230.855C140.361 233.905 140.84 237.009 141.069 240.136C143.527 240.555 146.042 240.498 148.478 239.968L146.712 231.279C147.971 226.13 146.712 212.377 146.712 212.377C146.712 212.377 149.57 207.061 149.847 198.958C150.093 190.987 152.052 188.41 152.115 188.326C156.154 190.421 161.29 213.052 161.29 213.052C160.867 218.536 161.374 226.974 163.056 231.53C164.077 234.425 164.507 237.496 164.321 240.56C164.648 240.795 165.022 240.956 165.417 241.032C165.812 241.108 166.219 241.097 166.609 241C169.013 240.612 171.897 238.533 171.897 238.533C171.897 238.533 170.972 213.917 170.298 212.969C169.624 212.021 170.298 206.725 170.298 206.725L169.201 198.115C169.201 198.115 169.368 183.518 167.769 180.988C166.39 178.799 166.071 174.96 166.008 173.949C166.008 173.792 166.008 173.703 166.008 173.703L163.574 170.775C163.574 170.775 140.003 169.005 138.232 170.775C137.798 171.21 137.531 172.2 137.369 173.446C136.883 177.275 137.443 183.518 137.443 183.518C137.443 183.518 138.148 188.158 139.162 192.883C139.768 195.721 139.768 198.655 139.162 201.493C139.484 204.813 139.159 208.165 138.205 211.361Z" fill="#575A89"/>
<path d="M139.658 248.363C140.703 249.757 146.9 249.165 147.95 248.73C148.593 248.468 148.546 247.253 148.374 246.006C148.264 245.21 148.102 244.399 148.034 243.807C147.867 242.288 148.557 239.208 148.557 239.208C148.557 239.208 147.167 240.685 146.832 239.208C146.754 238.927 146.601 238.672 146.389 238.47C146.177 238.269 145.915 238.13 145.63 238.066C144.91 237.847 144.134 237.896 143.446 238.203C142.349 238.674 140.525 239.69 140.834 241.062C141.294 243 139.653 245.776 139.653 245.776C139.356 246.148 139.194 246.609 139.194 247.085C139.194 247.561 139.356 248.023 139.653 248.395L139.658 248.363Z" fill="#CBCEDA"/>
<path opacity="0.1" d="M139.658 248.364C140.703 249.757 146.9 249.165 147.95 248.73C148.593 248.468 148.546 247.253 148.373 246.007C147.71 246.316 146.576 246.578 144.716 246.4C144.276 246.36 143.835 246.346 143.394 246.358C142.054 246.421 140.712 246.395 139.376 246.279C139.226 246.619 139.173 246.993 139.223 247.361C139.273 247.729 139.424 248.076 139.658 248.364Z" fill="black"/>
<path opacity="0.1" d="M161.253 213.053C160.83 218.536 161.337 226.974 163.02 231.531C164.04 234.425 164.47 237.496 164.284 240.56C164.611 240.795 164.985 240.957 165.38 241.033C165.775 241.109 166.182 241.097 166.573 241C166.05 237.444 163.903 222.108 162.513 209.994C161.507 201.603 158.427 193.597 153.552 186.703L152.078 188.326C156.117 190.437 161.253 213.053 161.253 213.053Z" fill="black"/>
<path d="M142.187 124.365L143.232 129.43L148.269 137.909L154.476 135.254C154.476 135.254 162.915 126.392 157.611 125.124C156.975 124.991 156.375 124.723 155.85 124.339C155.396 123.976 155.034 123.51 154.795 122.979C154.556 122.448 154.447 121.867 154.476 121.285C154.517 120.03 154.81 118.795 155.338 117.656L144.475 114.246C144.92 115.677 145.181 117.159 145.254 118.656C145.337 121.621 144.235 123.082 143.336 123.778C142.995 124.048 142.605 124.248 142.187 124.365Z" fill="#FBBEBE"/>
<path opacity="0.1" d="M144.476 114.246C144.92 115.677 145.182 117.159 145.254 118.656C145.45 118.893 145.661 119.117 145.886 119.326C147.475 120.854 149.59 121.707 151.791 121.71C152.693 121.711 153.589 121.568 154.445 121.285C154.486 120.03 154.779 118.795 155.307 117.656L144.476 114.246Z" fill="black"/>
<path d="M143.211 112.848C143.21 114.551 143.713 116.217 144.657 117.634C145.601 119.051 146.943 120.155 148.513 120.807C150.083 121.46 151.811 121.63 153.478 121.298C155.145 120.965 156.676 120.144 157.877 118.939C159.079 117.734 159.896 116.199 160.227 114.528C160.558 112.857 160.387 111.125 159.735 109.552C159.083 107.978 157.981 106.634 156.567 105.689C155.152 104.744 153.49 104.24 151.791 104.242C150.662 104.237 149.544 104.457 148.501 104.888C147.457 105.318 146.509 105.952 145.711 106.752C144.914 107.552 144.282 108.503 143.853 109.549C143.424 110.595 143.206 111.716 143.211 112.848Z" fill="#FBBEBE"/>
<path opacity="0.1" d="M142.187 124.365L143.232 129.429L148.269 137.909L154.476 135.254C154.476 135.254 162.915 126.392 157.611 125.124C156.975 124.99 156.375 124.723 155.85 124.339C156.806 126.957 152.856 132.467 152.856 132.467C152.396 133.143 151.341 132.719 151.341 132.719C148.791 132.331 144.104 124.993 143.341 123.773C143 124.045 142.607 124.247 142.187 124.365Z" fill="black"/>
<path opacity="0.1" d="M137.322 173.431C138.817 173.771 147.088 175.609 150.223 175.149C153.677 174.625 160.386 174.305 160.386 174.305C160.386 174.305 164.66 174.536 165.972 173.933C165.972 173.776 165.972 173.687 165.972 173.687L163.537 170.759C163.537 170.759 139.966 168.989 138.195 170.759C137.751 171.21 137.484 172.2 137.322 173.431Z" fill="black"/>
<path d="M152.836 132.719C152.836 132.719 157.277 126.555 155.6 124.151L163.103 127.236C163.103 127.236 167.618 126.686 169.248 133.442C169.509 134.566 169.604 135.722 169.53 136.873C169.485 138.661 169.911 140.429 170.763 142C172.618 145.714 172.195 154.235 168.407 155.094C164.618 155.953 163.27 155.513 163.27 155.513C163.27 155.513 163.793 170.953 165.967 172.729C168.14 174.504 160.386 174.08 160.386 174.08C160.386 174.08 153.677 174.415 150.223 174.923C146.769 175.431 137.092 173.148 137.092 173.148C137.092 173.148 138.524 166.653 139.026 162.516C139.527 158.378 140.713 149.579 140.713 149.579L132.123 137.92C132.123 137.92 130.608 130.876 135.911 127.754C141.215 124.633 143.227 123.863 143.227 123.863C143.227 123.863 148.556 132.562 151.336 132.987C151.32 132.976 152.376 133.4 152.836 132.719Z" fill="#0A2240"/>
<path opacity="0.1" d="M162.685 135.165C162.685 135.165 162.769 137.951 162.262 139.051C161.755 140.151 159.905 146.221 159.905 146.221H164.112C164.112 146.221 161.839 143.775 162.021 142.591C162.204 141.408 162.685 135.165 162.685 135.165Z" fill="black"/>
<path d="M150.224 156.178C150.224 156.178 159.519 153.899 160.387 151.956C161.254 150.013 163.642 145.671 163.642 145.671L162.659 144.346L158.14 147.902C158.14 147.902 152.753 152.208 150.224 152.616C147.695 153.025 150.224 156.178 150.224 156.178Z" fill="#FBBEBE"/>
<path opacity="0.05" d="M150.224 156.178C150.224 156.178 159.519 153.899 160.387 151.956C161.254 150.013 163.642 145.671 163.642 145.671L162.659 144.346L158.14 147.902C158.14 147.902 152.753 152.208 150.224 152.616C147.695 153.025 150.224 156.178 150.224 156.178Z" fill="black"/>
<path d="M142.187 145.21V150.264H142.996C147 150.264 150.939 151.286 154.44 153.234L155.96 154.077L156.368 154.308L158.98 148.416L156.54 146.221H156.415C155.814 146.279 153.233 146.499 152.14 146.127C151.048 145.755 149.81 144.65 146.743 145.435C145.238 145.823 143.947 147.53 142.484 147.007L142.187 145.21Z" fill="#FBBEBE"/>
<path opacity="0.1" d="M134.061 136.013L132.379 137.909V142.529C132.379 142.529 133.811 157.042 138.356 158.645C142.902 160.247 151.017 157.718 151.017 157.718C151.017 157.718 153.107 152.15 152.13 151.81C151.153 151.469 143.467 149.437 143.467 149.437C143.467 149.437 143.571 140.926 141.899 138.396C141.899 138.396 142.996 130.462 139.208 130.294C135.42 130.126 134.061 136.013 134.061 136.013Z" fill="black"/>
<path d="M133.811 136.013L132.123 137.909V142.529C132.123 142.529 133.555 157.042 138.101 158.645C142.646 160.247 150.745 157.718 150.745 157.718C150.745 157.718 152.836 152.15 151.864 151.81C150.892 151.469 143.195 149.437 143.195 149.437C143.195 149.437 143.305 140.926 141.628 138.396C141.628 138.396 142.72 130.462 138.931 130.294C135.143 130.126 133.811 136.013 133.811 136.013Z" fill="#0A2240"/>
<path opacity="0.1" d="M145.568 116.504C145.494 115.95 145.561 115.386 145.761 114.865C145.868 114.608 146.055 114.393 146.295 114.253C146.534 114.113 146.813 114.056 147.088 114.09C147.809 114.257 148.133 115.2 148.828 115.425C149.134 115.487 149.452 115.442 149.73 115.298C150.007 115.154 150.227 114.92 150.354 114.634C150.596 114.053 150.696 113.423 150.647 112.796C150.647 112.094 150.647 111.387 150.647 110.701C150.647 110.015 150.673 109.103 151.143 108.501C151.734 107.752 153.113 107.422 154.033 107.454C154.645 107.458 155.234 107.696 155.678 108.119C155.904 108.345 156.176 108.517 156.476 108.624C156.776 108.731 157.096 108.77 157.413 108.737C157.693 108.694 157.955 108.573 158.17 108.388C158.384 108.203 158.542 107.961 158.625 107.689C158.623 107.681 158.623 107.672 158.625 107.663C157.909 106.717 157.005 105.93 155.971 105.351C154.936 104.773 153.793 104.415 152.614 104.3C151.435 104.186 150.245 104.317 149.119 104.686C147.993 105.056 146.955 105.654 146.071 106.445C145.187 107.236 144.476 108.201 143.982 109.281C143.489 110.361 143.224 111.531 143.203 112.718C143.183 113.906 143.408 115.084 143.865 116.18C144.321 117.276 144.999 118.266 145.855 119.086C145.709 118.232 145.613 117.37 145.568 116.504Z" fill="black"/>
<path d="M157.423 108.485C157.702 108.441 157.964 108.32 158.178 108.135C158.393 107.95 158.551 107.708 158.635 107.437C158.703 107.165 158.687 106.872 158.766 106.605C158.964 105.939 159.67 105.594 160.14 105.091C161.091 104.08 161.028 102.42 160.354 101.21C159.832 100.231 158.787 99.4083 157.663 99.5968C156.984 99.7173 156.394 100.204 155.704 100.246C155.039 100.2 154.395 99.9912 153.828 99.6387C152.368 98.9757 150.726 98.8298 149.172 99.2249C148.695 99.3203 148.252 99.5449 147.892 99.8744C147.648 100.181 147.421 100.501 147.213 100.833C146.424 101.838 145.018 102.032 143.77 102.257C142.521 102.483 141.105 102.98 140.692 104.19C140.42 104.986 140.692 105.856 140.838 106.688C140.894 106.861 140.883 107.048 140.807 107.212C140.614 107.537 140.123 107.401 139.762 107.479C139.057 107.626 138.874 108.527 138.848 109.271C138.816 110.103 138.795 110.936 138.78 111.769C138.735 112.156 138.784 112.548 138.921 112.912C139.058 113.277 139.28 113.603 139.569 113.864L142.348 117.211C143.582 118.698 144.888 120.426 144.642 122.343C145.222 122.605 145.917 122.097 146.111 121.484C146.241 120.853 146.209 120.199 146.016 119.583C145.792 118.497 145.645 117.396 145.578 116.289C145.504 115.735 145.57 115.171 145.771 114.649C145.877 114.391 146.065 114.175 146.306 114.035C146.547 113.895 146.827 113.838 147.103 113.874C147.824 114.042 148.148 114.979 148.843 115.21C149.149 115.27 149.467 115.225 149.744 115.082C150.021 114.938 150.241 114.704 150.369 114.419C150.611 113.838 150.711 113.208 150.662 112.581V110.486C150.662 109.721 150.688 108.914 151.158 108.286C151.748 107.537 153.128 107.212 154.048 107.238C154.659 107.248 155.246 107.485 155.693 107.904C155.921 108.123 156.194 108.289 156.493 108.39C156.792 108.49 157.11 108.523 157.423 108.485Z" fill="#0A2240"/>
<path opacity="0.1" d="M155.484 134.956L152.872 145.813C152.872 145.813 150.771 145.797 155.484 134.956Z" fill="black"/>
<path opacity="0.1" d="M146.477 133.144C146.477 133.144 149.93 138.811 148.567 144.666L147.924 144.713C147.924 144.713 149.089 142.005 146.477 133.144Z" fill="black"/>
<path opacity="0.1" d="M144.286 165.207C144.286 165.207 140.049 163.804 139.74 167.062C139.74 167.062 140.54 164.825 144.286 165.207Z" fill="black"/>
<path opacity="0.1" d="M156.54 146.472C156.54 146.472 157.382 152.38 155.866 154.742C158.244 155.585 160.77 155.93 163.286 155.753L163.808 146.472H156.54Z" fill="black"/>
<path opacity="0.1" d="M155.972 154.077L156.379 154.308L158.992 148.416L156.552 146.221H156.421C156.452 146.504 157.132 151.579 155.972 154.077Z" fill="black"/>
<path d="M156.54 146.221C156.54 146.221 157.382 152.129 155.866 154.491C158.245 155.331 160.77 155.675 163.286 155.502L166.233 146.221H156.54Z" fill="#0A2240"/>
<path d="M163.809 244.77C163.858 245.191 164.045 245.584 164.341 245.887C164.637 246.189 165.026 246.384 165.445 246.441C167.728 246.787 173.235 247.656 174.625 248.321C176.397 249.165 183.383 248.573 183.717 247.729C183.765 247.561 183.778 247.385 183.758 247.212C183.737 247.038 183.682 246.871 183.597 246.719C183.359 246.202 182.964 245.775 182.468 245.498C182.301 245.409 182.126 245.333 181.946 245.273C180.629 244.833 178.147 243.901 177.473 242.921C177.473 242.921 174.375 240.203 173.491 238.731C173.325 238.442 173.091 238.199 172.808 238.022C172.525 237.846 172.204 237.742 171.872 237.721C171.135 237.689 170.304 238.061 169.98 239.679C169.98 239.679 165.941 241.989 164.849 239.962C164.849 239.962 164.677 243.073 164.008 243.927C163.833 244.171 163.762 244.474 163.809 244.77Z" fill="#CBCEDA"/>
<path opacity="0.1" d="M163.809 244.771C163.857 245.192 164.045 245.585 164.341 245.887C164.637 246.19 165.025 246.385 165.444 246.441C167.728 246.787 173.235 247.656 174.625 248.322C176.396 249.165 183.382 248.573 183.717 247.73C183.764 247.562 183.778 247.386 183.757 247.212C183.737 247.039 183.682 246.871 183.597 246.719C183.359 246.203 182.963 245.775 182.468 245.499C181.329 246.258 178.81 247.002 173.24 246.127C167.932 245.3 165.303 244.483 164.023 243.933C163.844 244.173 163.767 244.474 163.809 244.771Z" fill="black"/>
<g opacity="0.1">
<path opacity="0.1" d="M140.85 106.788C140.85 106.788 140.85 106.762 140.85 106.751C140.688 106.125 140.602 105.481 140.594 104.834C140.634 105.357 140.709 105.877 140.819 106.39C140.857 106.519 140.868 106.655 140.85 106.788Z" fill="black"/>
<path opacity="0.1" d="M145.761 114.687C145.629 114.993 145.558 115.322 145.552 115.655C145.514 115.197 145.586 114.735 145.761 114.309C145.867 114.052 146.055 113.836 146.296 113.696C146.537 113.556 146.817 113.499 147.093 113.534C147.814 113.702 148.138 114.645 148.833 114.87C149.139 114.931 149.457 114.887 149.734 114.743C150.012 114.599 150.232 114.365 150.359 114.079C150.601 113.498 150.701 112.868 150.651 112.241C150.651 111.539 150.651 110.832 150.651 110.146C150.651 109.459 150.677 108.548 151.148 107.946C151.738 107.197 153.118 106.867 154.037 106.898C154.65 106.903 155.238 107.141 155.683 107.563C155.908 107.789 156.181 107.962 156.481 108.069C156.781 108.176 157.101 108.214 157.418 108.182C157.698 108.139 157.961 108.019 158.175 107.833C158.39 107.648 158.547 107.406 158.63 107.134C158.698 106.862 158.682 106.568 158.761 106.301C158.959 105.636 159.665 105.29 160.135 104.788C160.579 104.3 160.832 103.667 160.846 103.007C160.881 103.397 160.837 103.79 160.714 104.162C160.592 104.534 160.395 104.877 160.135 105.17C159.665 105.694 158.959 106.018 158.761 106.678C158.682 106.951 158.698 107.239 158.63 107.511C158.547 107.782 158.389 108.024 158.174 108.21C157.96 108.395 157.698 108.516 157.418 108.559C157.101 108.592 156.78 108.553 156.48 108.445C156.179 108.337 155.907 108.163 155.683 107.935C155.237 107.515 154.65 107.277 154.037 107.27C153.118 107.239 151.738 107.569 151.148 108.318C150.677 108.92 150.657 109.753 150.651 110.517C150.646 111.282 150.651 111.926 150.651 112.612C150.701 113.238 150.6 113.867 150.359 114.446C150.233 114.733 150.013 114.968 149.736 115.112C149.458 115.256 149.139 115.3 148.833 115.236C148.128 115.011 147.814 114.074 147.093 113.906C146.816 113.87 146.535 113.926 146.294 114.068C146.052 114.209 145.865 114.427 145.761 114.687Z" fill="black"/>
<path opacity="0.1" d="M138.843 112.366C138.998 112.8 139.242 113.196 139.559 113.529L142.339 116.876C143.509 118.285 144.747 119.913 144.653 121.715C144.57 120.065 143.425 118.573 142.339 117.253L139.559 113.906C139.27 113.645 139.048 113.319 138.911 112.954C138.774 112.59 138.725 112.198 138.77 111.811C138.77 111.999 138.794 112.185 138.843 112.366Z" fill="black"/>
<path opacity="0.1" d="M146.101 121.15C146.147 121.002 146.175 120.849 146.185 120.694C146.207 120.974 146.179 121.256 146.101 121.527C145.908 122.139 145.218 122.647 144.633 122.38C144.649 122.259 144.658 122.136 144.659 122.014C144.964 122.088 145.287 122.04 145.557 121.878C145.827 121.716 146.022 121.455 146.101 121.15Z" fill="black"/>
</g>
<path opacity="0.1" d="M174.071 239.502C174.071 239.502 173.193 241.073 170.006 239.685L174.071 239.502Z" fill="black"/>
<path opacity="0.1" d="M147.114 239.873C147.114 239.873 144.366 243.12 140.901 240.921L147.114 239.873Z" fill="black"/>
<path opacity="0.1" d="M139.114 201.493C139.114 201.493 141.053 202.708 141.121 203.404C141.189 204.101 140.117 202.881 140.117 202.881L139.114 201.493Z" fill="black"/>
<path opacity="0.1" d="M138.347 210.821C139.022 211.386 139.862 211.715 140.74 211.758C142.192 211.821 142.072 213.717 141.121 213.151C140.139 212.446 139.211 211.667 138.347 210.821Z" fill="black"/>
<path opacity="0.1" d="M137.976 212.036C137.976 212.036 138.911 216.629 139.669 215.744L137.976 212.036Z" fill="black"/>
<path d="M43.521 240.801C45.0886 237.915 43.3068 234.379 41.2794 231.808C39.2521 229.236 36.7806 226.57 36.8328 223.276C36.9112 218.562 41.9012 215.776 45.888 213.277C48.8484 211.425 51.5777 209.225 54.0184 206.725C55.0396 205.762 55.8849 204.628 56.516 203.373C57.3416 201.529 57.3154 199.434 57.2632 197.418C57.089 190.69 56.7581 183.97 56.2704 177.259" stroke="#656380" stroke-width="4" stroke-miterlimit="10"/>
<path d="M63.8522 176.892C63.7966 175.661 63.4324 174.464 62.7931 173.411C62.1538 172.358 61.2601 171.484 60.1946 170.869L58.5539 174.122L58.6009 170.183C57.1136 169.747 55.5267 169.796 54.069 170.323C52.6113 170.85 51.3581 171.827 50.4901 173.113C49.622 174.4 49.1839 175.93 49.239 177.482C49.2941 179.034 49.8394 180.529 50.7964 181.75C51.7534 182.972 53.0727 183.857 54.564 184.278C56.0553 184.7 57.6417 184.636 59.0944 184.096C60.5471 183.555 61.7911 182.567 62.6472 181.272C63.5032 179.977 63.927 178.444 63.8574 176.892H63.8522Z" fill="#2CEBBD"/>
<path d="M50.7732 226.643C50.004 228.138 48.7457 229.322 47.2092 229.997C45.6727 230.672 43.9513 230.797 42.3337 230.352C40.716 229.906 39.3003 228.917 38.3238 227.549C37.3474 226.182 36.8695 224.519 36.9702 222.841C37.071 221.162 37.7443 219.569 38.8773 218.329C40.0104 217.089 41.5342 216.277 43.1935 216.029C44.8528 215.781 46.5468 216.112 47.9914 216.967C49.436 217.822 50.5436 219.149 51.1285 220.725L46.546 224.459L51.5883 223.291C51.5865 224.458 51.307 225.607 50.7732 226.643Z" fill="#2CEBBD"/>
<path d="M47.1519 212.372C45.3299 212.501 43.5255 211.942 42.0938 210.805C40.6621 209.668 39.7065 208.035 39.415 206.227C39.1236 204.42 39.5173 202.568 40.5187 201.037C41.5202 199.506 43.0569 198.406 44.8268 197.953L44.7849 200.98L46.4465 197.686C47.4087 197.638 48.3707 197.782 49.2773 198.109C50.1839 198.435 51.0172 198.938 51.7294 199.588C52.4416 200.238 53.0187 201.023 53.4276 201.897C53.8364 202.772 54.069 203.718 54.1118 204.683C54.1548 205.531 54.0486 206.38 53.7983 207.192C53.3577 208.636 52.4827 209.909 51.2931 210.836C50.1034 211.763 48.6571 212.299 47.1519 212.372Z" fill="#2CEBBD"/>
<path d="M64.954 200.498C63.8282 200.54 62.7078 200.321 61.6803 199.858C60.6528 199.395 59.7459 198.7 59.0303 197.828C58.3147 196.956 57.8098 195.929 57.5549 194.829C57.3 193.729 57.302 192.585 57.5608 191.486C57.8196 190.387 58.3282 189.363 59.0468 188.493C59.7655 187.623 60.6749 186.932 61.704 186.472C62.7331 186.013 63.8543 185.798 64.9799 185.844C66.1056 185.89 67.2054 186.196 68.1936 186.739L66.8978 190.3L69.5678 187.734C70.9959 189.045 71.8471 190.87 71.9348 192.809C71.9696 193.49 71.908 194.172 71.7519 194.836C71.386 196.392 70.5247 197.786 69.2982 198.807C68.0718 199.829 66.5468 200.422 64.954 200.498Z" fill="#2CEBBD"/>
<path opacity="0.1" d="M62.8638 178.851C61.1709 179.034 59.5249 179.563 57.8268 179.668C56.1286 179.773 54.2632 179.364 53.1868 178.044C52.6121 177.332 52.3195 176.426 51.8335 175.651C51.3694 174.926 50.7341 174.327 49.9838 173.907C49.5414 174.834 49.2983 175.844 49.2703 176.871C49.2423 177.898 49.4301 178.92 49.8215 179.87C50.2128 180.82 50.799 181.677 51.542 182.385C52.285 183.093 53.1683 183.637 54.1344 183.981C55.1005 184.325 56.128 184.461 57.1502 184.382C58.1724 184.302 59.1664 184.008 60.0679 183.518C60.9693 183.028 61.758 182.354 62.3828 181.539C63.0076 180.725 63.4545 179.787 63.6946 178.788C63.4194 178.799 63.1425 178.82 62.8638 178.851Z" fill="#219653"/>
<path opacity="0.1" d="M64.9535 200.498C63.6887 200.562 62.429 200.296 61.2975 199.726C60.166 199.156 59.2016 198.302 58.4985 197.246C57.7954 196.19 57.3779 194.969 57.2866 193.703C57.1953 192.437 57.4335 191.169 57.9779 190.023C58.5598 190.415 59.0602 190.917 59.4514 191.5C59.9739 192.291 60.2926 193.207 60.904 193.93C62.0483 195.276 63.9973 195.716 65.7686 195.638C67.5399 195.559 69.2485 195.051 70.9937 194.889C71.2393 194.889 71.4849 194.852 71.7357 194.847C71.3686 196.398 70.5087 197.788 69.2856 198.807C68.0624 199.826 66.5421 200.42 64.9535 200.498Z" fill="#219653"/>
<path opacity="0.1" d="M47.1514 212.372C45.898 212.436 44.6491 212.177 43.5248 211.617C42.4005 211.058 41.4387 210.219 40.7317 209.179C40.0248 208.14 39.5966 206.935 39.4882 205.682C39.3799 204.429 39.5951 203.168 40.1131 202.022C40.7224 202.42 41.2537 202.926 41.6807 203.515C42.2502 204.322 42.6055 205.249 43.2743 205.992C44.5127 207.375 46.5923 207.862 48.4629 207.815C50.3335 207.768 52.0317 207.333 53.8343 207.192C53.3916 208.642 52.5111 209.919 51.3142 210.847C50.1174 211.774 48.663 212.307 47.1514 212.372Z" fill="#219653"/>
<path opacity="0.1" d="M50.7726 226.643C49.9792 228.42 48.514 229.809 46.6992 230.503C44.8844 231.198 42.8687 231.141 41.0956 230.346C39.3225 229.551 37.9371 228.082 37.2443 226.263C36.5516 224.444 36.6081 222.423 37.4014 220.646C38.0079 221.041 38.5506 221.527 39.0108 222.086C39.7109 222.935 40.1707 223.904 40.9754 224.705C42.475 226.182 44.8943 226.8 47.0523 226.847C48.2953 226.853 49.5376 226.785 50.7726 226.643Z" fill="#219653"/>
<path d="M32.459 237.48C32.459 237.48 38.2484 237.328 39.9727 236.056C41.697 234.783 48.8555 233.327 49.3049 235.322C49.7542 237.318 58.0047 245.274 51.4681 245.305C44.9314 245.336 36.289 244.257 34.5438 243.21C32.7986 242.162 32.459 237.48 32.459 237.48Z" fill="#656380"/>
<path opacity="0.2" d="M51.6091 244.608C45.0725 244.666 36.4249 243.592 34.6849 242.513C33.3577 241.701 32.83 238.795 32.6523 237.459H32.459C32.459 237.459 32.8247 242.136 34.549 243.22C36.2733 244.304 44.9419 245.357 51.4733 245.315C53.3596 245.315 54.0127 244.629 53.9761 243.634C53.7306 244.226 53.0356 244.598 51.6091 244.608Z" fill="black"/>
<defs>
<linearGradient id="paint0_linear" x1="170.189" y1="239.775" x2="170.189" y2="239.648" gradientUnits="userSpaceOnUse">
<stop stop-color="#808080" stop-opacity="0.25"/>
<stop offset="0.54" stop-color="#808080" stop-opacity="0.12"/>
<stop offset="1" stop-color="#808080" stop-opacity="0.1"/>
</linearGradient>
</defs>
</svg>
