<svg width="317" height="112" viewBox="0 0 317 112" fill="none" xmlns="http://www.w3.org/2000/svg">
<path d="M22.7207 38H11.2455C9.4347 38 7.9668 39.4679 7.9668 41.2787C7.9668 43.0894 9.4347 44.5573 11.2455 44.5573H22.7207C24.5315 44.5573 25.9994 43.0894 25.9994 41.2787C25.9994 39.4679 24.5315 38 22.7207 38Z" fill="#4790FF"/>
<path d="M40.4255 52.4263H11.5733C9.58149 52.4263 7.9668 54.041 7.9668 56.0328C7.9668 58.0246 9.58149 59.6393 11.5733 59.6393H40.4255C42.4173 59.6393 44.032 58.0246 44.032 56.0328C44.032 54.041 42.4173 52.4263 40.4255 52.4263Z" fill="#2F2E41"/>
<path d="M40.753 67.625H29.2777C27.4669 67.625 25.999 69.0929 25.999 70.9037C25.999 72.7144 27.4669 74.1823 29.2777 74.1823H40.753C42.5637 74.1823 44.0316 72.7144 44.0316 70.9037C44.0316 69.0929 42.5637 67.625 40.753 67.625Z" fill="#6FCF97"/>
<path d="M84.95 72.6C93.95 72.6 97.85 67.85 97.85 62.3C97.85 49.85 78.45 53.7 78.45 47.5C78.45 45 80.65 43.35 84.1 43.35C87.6 43.35 91.15 44.55 93.75 47.15L97.1 42.8C94 39.8 89.8 38.15 84.6 38.15C77.3 38.15 72.45 42.4 72.45 47.9C72.45 60.2 91.9 55.85 91.9 62.85C91.9 65.05 90 67.4 85.2 67.4C80.55 67.4 76.95 65.25 74.65 62.8L71.4 67.3C74.35 70.45 78.8 72.6 84.95 72.6ZM114.088 72.6C118.788 72.6 121.638 70.6 123.338 68.3L119.888 65.1C118.538 66.95 116.688 67.95 114.338 67.95C109.938 67.95 107.037 64.6 107.037 59.9C107.037 55.2 109.938 51.9 114.338 51.9C116.688 51.9 118.538 52.85 119.888 54.75L123.338 51.55C121.638 49.25 118.788 47.25 114.088 47.25C106.738 47.25 101.588 52.6 101.588 59.9C101.588 67.25 106.738 72.6 114.088 72.6ZM149.541 72V54.9C149.541 49.95 146.941 47.25 141.741 47.25C137.941 47.25 134.791 49.25 133.191 51.15V38.65H127.941V72H133.191V55.15C134.441 53.5 136.741 51.9 139.391 51.9C142.341 51.9 144.291 53.05 144.291 56.8V72H149.541ZM167.509 72.6C171.359 72.6 174.909 71.4 177.309 69.1L174.909 65.65C173.209 67.35 170.409 68.3 168.059 68.3C163.509 68.3 160.759 65.3 160.359 61.65H179.009V60.4C179.009 52.8 174.359 47.25 167.109 47.25C159.959 47.25 154.859 52.9 154.859 59.9C154.859 67.55 160.259 72.6 167.509 72.6ZM173.909 57.95H160.309C160.559 55 162.609 51.55 167.109 51.55C171.859 51.55 173.809 55.1 173.909 57.95ZM206.441 72V38.65H201.191V51.2C199.241 48.65 196.441 47.25 193.441 47.25C187.191 47.25 182.691 52.15 182.691 59.95C182.691 67.9 187.241 72.6 193.441 72.6C196.541 72.6 199.341 71.1 201.191 68.7V72H206.441ZM194.941 67.95C190.791 67.95 188.141 64.6 188.141 59.95C188.141 55.25 190.791 51.9 194.941 51.9C197.441 51.9 199.991 53.35 201.191 55.15V64.75C199.991 66.55 197.441 67.95 194.941 67.95ZM234.794 72V47.85H229.544V64.8C228.294 66.45 225.994 67.95 223.344 67.95C220.394 67.95 218.494 66.8 218.494 63.05V47.85H213.244V64.95C213.244 69.9 215.794 72.6 220.994 72.6C224.794 72.6 227.794 70.75 229.544 68.8V72H234.794ZM246.863 72V38.65H241.613V72H246.863ZM264.823 72.6C268.673 72.6 272.223 71.4 274.623 69.1L272.223 65.65C270.523 67.35 267.723 68.3 265.373 68.3C260.823 68.3 258.073 65.3 257.673 61.65H276.323V60.4C276.323 52.8 271.673 47.25 264.423 47.25C257.273 47.25 252.173 52.9 252.173 59.9C252.173 67.55 257.573 72.6 264.823 72.6ZM271.223 57.95H257.623C257.873 55 259.923 51.55 264.423 51.55C269.173 51.55 271.123 55.1 271.223 57.95ZM286.755 72V55.55C287.805 53.85 290.755 52.35 292.955 52.35C293.605 52.35 294.155 52.4 294.605 52.5V47.3C291.455 47.3 288.555 49.1 286.755 51.4V47.85H281.505V72H286.755Z" fill="#2F2E41"/>
</svg>
