<svg width="517" height="330" viewBox="0 0 517 330" fill="none" xmlns="http://www.w3.org/2000/svg">
<path d="M423.409 303.184C419.907 316.228 407.634 324.379 407.634 324.379C407.634 324.379 401.039 311.382 404.542 298.339C408.044 285.296 420.317 277.145 420.317 277.145C420.317 277.145 426.912 290.141 423.409 303.184Z" fill="#3F3D56"/>
<path d="M418.131 300.369C408.628 309.872 407.564 324.379 407.564 324.379C407.564 324.379 421.909 323.478 431.412 313.975C440.915 304.472 441.978 289.965 441.978 289.965C441.978 289.965 427.634 290.866 418.131 300.369Z" fill="#2CEBBD"/>
<path d="M70.7971 254.032H88.8737L133.42 236.667C133.42 236.667 165.054 223.803 162.471 248.243C159.889 272.684 155.37 305.485 155.37 305.485C155.37 305.485 141.167 299.053 133.42 300.983C125.673 302.912 130.837 261.75 130.837 261.75C130.837 261.75 67.5691 291.978 61.7588 288.119C55.9484 284.26 54.6572 257.248 54.6572 257.248L70.7971 254.032Z" fill="#2F2E41"/>
<path opacity="0.1" d="M70.7971 254.032H88.8737L133.42 236.667C133.42 236.667 165.054 223.803 162.471 248.243C159.889 272.684 155.37 305.485 155.37 305.485C155.37 305.485 141.167 299.053 133.42 300.983C125.673 302.912 130.837 261.75 130.837 261.75C130.837 261.75 67.5691 291.978 61.7588 288.119C55.9484 284.26 54.6572 257.248 54.6572 257.248L70.7971 254.032Z" fill="black"/>
<path d="M99.1942 197.521L121.047 229.022L171.994 271.726C171.994 271.726 219.072 282.726 212.623 290.49C206.174 298.255 166.835 282.726 166.835 282.726C166.835 282.726 108.149 240.022 106.214 236.787C104.28 233.552 82.998 203.141 82.998 203.141L99.1942 197.521Z" fill="#A0616A"/>
<path opacity="0.1" d="M99.1942 197.521L121.047 229.022L171.994 271.726C171.994 271.726 219.072 282.726 212.623 290.49C206.174 298.255 166.835 282.726 166.835 282.726C166.835 282.726 108.149 240.022 106.214 236.787C104.28 233.552 82.998 203.141 82.998 203.141L99.1942 197.521Z" fill="black"/>
<path d="M86.2362 172.554L100.541 200.208C100.541 200.208 97.2902 213.713 92.0883 214.999C86.8864 216.286 64.7783 198.279 64.7783 198.279L86.2362 172.554Z" fill="#D0CDE1"/>
<path opacity="0.1" d="M86.2362 172.554L100.541 200.208C100.541 200.208 97.2902 213.713 92.0883 214.999C86.8864 216.286 64.7783 198.279 64.7783 198.279L86.2362 172.554Z" fill="black"/>
<path d="M259.53 240.176L263.808 257.336C263.855 257.527 263.848 257.727 263.786 257.915L244.383 316.885C244.306 317.119 244.149 317.32 243.938 317.454C243.728 317.589 243.476 317.649 243.225 317.625C242.974 317.601 242.739 317.494 242.56 317.322C242.38 317.15 242.267 316.923 242.238 316.68L239.554 293.707C239.536 293.555 239.552 293.4 239.601 293.254L257.411 240.096C257.486 239.874 257.632 239.682 257.829 239.549C258.026 239.416 258.262 239.348 258.502 239.357C258.741 239.366 258.972 239.451 259.157 239.599C259.343 239.746 259.474 239.949 259.53 240.176Z" fill="#2F2E41"/>
<path d="M257.892 241.381L261.814 256.176L244.817 310.208L240.896 293.484L257.892 241.381Z" fill="#F2F2F2"/>
<path d="M173.52 321.647C174.163 323.582 240.379 321.003 241.022 320.358C241.583 319.55 242.057 318.686 242.436 317.779C243.041 316.489 243.594 315.2 243.594 315.2L241.022 294.323L175.449 291.989C175.449 291.989 173.809 309.681 173.475 317.779C173.391 319.823 173.391 321.26 173.52 321.647Z" fill="#2F2E41"/>
<path opacity="0.1" d="M232.858 297.388L234.147 315.607H205.132V297.388H232.858Z" fill="black"/>
<path opacity="0.1" d="M195.514 302.822L195.686 302.786L194.871 310.883H178.816V302.822H195.514Z" fill="black"/>
<path opacity="0.1" d="M173.52 321.625C174.161 323.621 240.193 320.959 240.834 320.293C241.393 319.46 241.865 318.567 242.244 317.631H173.475C173.391 319.741 173.391 321.225 173.52 321.625Z" fill="black"/>
<path d="M95.8191 163.782C111.844 163.782 124.834 150.791 124.834 134.766C124.834 118.742 111.844 105.751 95.8191 105.751C79.7943 105.751 66.8037 118.742 66.8037 134.766C66.8037 150.791 79.7943 163.782 95.8191 163.782Z" fill="#A0616A"/>
<path d="M93.794 160.437C93.794 160.437 84.1895 177.203 82.2687 186.231C80.3478 195.26 53.4552 168.175 53.4552 168.175L49.9336 158.825C49.9336 158.825 75.2254 146.895 73.3045 137.222C71.3836 127.549 93.794 160.437 93.794 160.437Z" fill="#A0616A"/>
<path d="M99.1699 210.341L125.664 245.102L188.992 292.094C188.992 292.094 234.872 301.75 224.532 308.83C214.193 315.911 184.468 302.393 184.468 302.393C184.468 302.393 120.494 268.276 106.924 254.114C93.3541 239.952 68.1523 216.134 68.1523 216.134L99.1699 210.341Z" fill="#A0616A"/>
<path d="M64.0875 264.315L71.8187 276.632L117.959 262.026C128.083 258.821 139.184 260 148.164 265.692C156.217 270.797 161.371 278.9 149.775 290.893C126.581 314.878 111.119 301.913 111.119 301.913C111.119 301.913 33.1628 338.863 20.2776 320.712C7.39229 302.561 6.74805 293.486 6.74805 293.486C6.74805 293.486 56.3563 262.37 64.0875 264.315Z" fill="#2F2E41"/>
<path d="M160.598 307.147C160.598 307.147 181.163 320.472 156.742 326.817C132.321 333.163 114.327 324.279 114.327 324.279C114.327 324.279 93.1191 324.279 93.1191 313.492C93.1191 302.706 100.188 301.437 100.188 301.437L122.039 304.609C122.039 304.609 148.387 297.629 160.598 307.147Z" fill="#D0CDE1"/>
<path d="M119.855 127.216C121.84 128.091 123.808 129.128 125.966 129.382C128.124 129.636 130.581 128.891 131.603 126.992C132.154 125.967 132.217 124.761 132.243 123.6C132.321 120.079 132.064 116.272 129.808 113.547C128.373 111.813 126.278 110.72 124.793 109.027C123.728 107.815 123.02 106.346 122.257 104.928C119.368 99.5589 115.091 94.3986 109.145 92.8507C106.663 92.2043 104.059 92.2359 101.492 92.2717L86.5206 92.4807C84.0979 92.5145 81.6378 92.5539 79.3185 93.2477C74.4996 94.6894 70.991 98.6992 67.7776 102.534C65.3735 105.403 62.9631 108.301 61.1588 111.573C58.572 116.347 57.2639 121.697 57.3594 127.113C57.3393 128.502 57.5206 129.887 57.8976 131.225C58.3386 132.452 58.8851 133.64 59.5309 134.775C62.3385 140.231 64.0056 147.047 60.8437 152.311C66.3362 150.091 71.7707 147.18 75.3939 142.531C77.0148 140.451 78.2859 138.016 80.446 136.49C82.6061 134.964 86.1258 134.832 87.5117 137.072C87.9881 137.978 88.2334 138.985 88.2263 140.007C88.3275 141.688 88.3247 143.434 89.0451 144.96C89.7655 146.486 91.4815 147.717 93.1199 147.261C95.9414 146.474 95.6712 142.189 97.8445 140.243C99.4949 138.764 102.041 139.047 104.161 138.376C106.632 137.594 108.485 135.476 109.542 133.132C110.344 131.351 110.333 126.688 111.852 125.723C113.757 124.513 118.089 126.437 119.855 127.216Z" fill="#2F2E41"/>
<path d="M47.5081 155.268C48.8091 154.92 50.1787 154.924 51.4779 155.278C55.6031 156.387 64.8506 159.324 66.8333 163.793C69.4038 169.586 78.4007 178.598 78.4007 178.598C78.4007 178.598 90.6106 190.829 88.0401 199.197C85.4696 207.565 75.8301 217.22 75.8301 217.22C75.8301 217.22 78.4006 257.13 65.5481 267.43C52.6955 277.729 47.5545 270.648 47.5545 280.304C47.5545 289.959 7.71154 320.213 0 301.546C0 301.546 3.85577 266.786 2.57052 254.555C1.30379 242.501 3.1582 167.295 47.5081 155.268Z" fill="#D0CDE1"/>
<path d="M68.3519 171.55C68.3519 171.55 107.41 200.584 100.366 212.843C100.366 212.843 76.6757 224.457 71.5534 223.812C66.431 223.166 46.5821 200.584 41.4598 198.649C36.3374 196.713 33.7763 161.872 68.3519 171.55Z" fill="#D0CDE1"/>
<path d="M233.931 147.776C251.633 147.776 265.983 133.577 265.983 116.061C265.983 98.5457 251.633 84.3467 233.931 84.3467C216.229 84.3467 201.879 98.5457 201.879 116.061C201.879 133.577 216.229 147.776 233.931 147.776Z" fill="#E0F2FF"/>
<path d="M496.757 74.8993H318.616V37.7866H496.757V74.8993ZM319.401 74.118H495.972V38.5679H319.401V74.118Z" fill="#3F3D56"/>
<path d="M483.937 45.21H306.471V81.6479H483.937V45.21Z" fill="#0066FF"/>
<path d="M193.783 10.1218C195.274 10.1218 196.482 8.91341 196.482 7.42274C196.482 5.93206 195.274 4.72363 193.783 4.72363C192.292 4.72363 191.084 5.93206 191.084 7.42274C191.084 8.91341 192.292 10.1218 193.783 10.1218Z" fill="#0066FF"/>
<path d="M203.229 10.1218C204.72 10.1218 205.928 8.91341 205.928 7.42274C205.928 5.93206 204.72 4.72363 203.229 4.72363C201.739 4.72363 200.53 5.93206 200.53 7.42274C200.53 8.91341 201.739 10.1218 203.229 10.1218Z" fill="#0066FF"/>
<path d="M212.677 10.1218C214.167 10.1218 215.376 8.91341 215.376 7.42274C215.376 5.93206 214.167 4.72363 212.677 4.72363C211.186 4.72363 209.978 5.93206 209.978 7.42274C209.978 8.91341 211.186 10.1218 212.677 10.1218Z" fill="#0066FF"/>
<path d="M517 214.579H186.359V0H517V214.579ZM187.145 213.796H516.214V0.783135H187.145V213.796Z" fill="#3F3D56"/>
<path d="M516.325 12.146H186.359V12.8208H516.325V12.146Z" fill="#3F3D56"/>
<path d="M194.793 9.44603C194.193 9.44603 193.606 9.26794 193.106 8.93429C192.607 8.60064 192.218 8.1264 191.988 7.57155C191.758 7.01671 191.698 6.40617 191.815 5.81715C191.932 5.22813 192.222 4.68708 192.646 4.26242C193.071 3.83775 193.612 3.54856 194.201 3.43139C194.79 3.31423 195.4 3.37436 195.955 3.60419C196.51 3.83401 196.984 4.22321 197.318 4.72256C197.652 5.22191 197.83 5.80898 197.83 6.40954C197.829 7.21458 197.509 7.98638 196.939 8.55563C196.37 9.12488 195.598 9.4451 194.793 9.44603ZM194.793 4.13217C194.343 4.13217 193.903 4.26574 193.528 4.51598C193.154 4.76622 192.862 5.1219 192.689 5.53803C192.517 5.95417 192.472 6.41207 192.56 6.85383C192.648 7.2956 192.864 7.70139 193.183 8.01988C193.501 8.33838 193.907 8.55528 194.349 8.64315C194.791 8.73102 195.249 8.68592 195.665 8.51355C196.081 8.34118 196.437 8.04929 196.687 7.67478C196.937 7.30027 197.071 6.85996 197.071 6.40954C197.07 5.80576 196.83 5.22691 196.403 4.79997C195.976 4.37303 195.397 4.13287 194.793 4.13217Z" fill="#3F3D56"/>
<path d="M204.242 9.44603C203.641 9.44603 203.054 9.26794 202.555 8.93429C202.055 8.60064 201.666 8.1264 201.436 7.57155C201.206 7.01671 201.146 6.40617 201.263 5.81715C201.381 5.22813 201.67 4.68708 202.094 4.26242C202.519 3.83775 203.06 3.54856 203.649 3.43139C204.238 3.31423 204.849 3.37436 205.404 3.60419C205.958 3.83401 206.433 4.22321 206.766 4.72256C207.1 5.22191 207.278 5.80898 207.278 6.40954C207.277 7.21458 206.957 7.98638 206.388 8.55563C205.818 9.12488 205.047 9.4451 204.242 9.44603ZM204.242 4.13217C203.791 4.13217 203.351 4.26574 202.976 4.51598C202.602 4.76622 202.31 5.1219 202.138 5.53803C201.965 5.95417 201.92 6.41207 202.008 6.85383C202.096 7.2956 202.313 7.70139 202.631 8.01988C202.95 8.33838 203.356 8.55528 203.797 8.64315C204.239 8.73102 204.697 8.68592 205.113 8.51355C205.529 8.34118 205.885 8.04929 206.135 7.67478C206.385 7.30027 206.519 6.85996 206.519 6.40954C206.518 5.80576 206.278 5.22691 205.851 4.79997C205.424 4.37303 204.845 4.13287 204.242 4.13217Z" fill="#3F3D56"/>
<path d="M213.689 9.44603C213.088 9.44603 212.501 9.26794 212.002 8.93429C211.503 8.60064 211.113 8.12641 210.884 7.57156C210.654 7.01671 210.594 6.40617 210.711 5.81715C210.828 5.22813 211.117 4.68708 211.542 4.26242C211.966 3.83776 212.507 3.54856 213.096 3.43139C213.685 3.31423 214.296 3.37436 214.851 3.60419C215.406 3.83401 215.88 4.2232 216.214 4.72255C216.547 5.2219 216.725 5.80897 216.725 6.40953C216.724 7.21458 216.404 7.98638 215.835 8.55563C215.266 9.12488 214.494 9.4451 213.689 9.44603ZM213.689 4.13217C213.238 4.13217 212.798 4.26573 212.424 4.51597C212.049 4.76621 211.757 5.12189 211.585 5.53803C211.412 5.95416 211.367 6.41206 211.455 6.85383C211.543 7.29559 211.76 7.70139 212.078 8.01988C212.397 8.33838 212.803 8.55528 213.245 8.64315C213.686 8.73102 214.144 8.68592 214.56 8.51356C214.976 8.34119 215.332 8.04929 215.582 7.67478C215.833 7.30026 215.966 6.85996 215.966 6.40954C215.966 5.80576 215.725 5.22691 215.298 4.79997C214.871 4.37304 214.293 4.13287 213.689 4.13217Z" fill="#3F3D56"/>
<path d="M290.275 12.146H289.601V214.579H290.275V12.146Z" fill="#3F3D56"/>
<path d="M384.743 112.012H327.387V119.435H384.743V112.012Z" fill="#E0F2FF"/>
<path d="M475.838 112.012H417.808V119.435H475.838V112.012Z" fill="#E0F2FF"/>
<path d="M388.791 116.061H330.086V107.289H388.791V116.061ZM330.874 115.264H388.003V108.087H330.874V115.264Z" fill="#3F3D56"/>
<path d="M384.743 172.743H327.387V180.166H384.743V172.743Z" fill="#E0F2FF"/>
<path d="M388.791 176.792H330.086V168.02H388.791V176.792ZM330.874 175.994H388.003V168.817H330.874V175.994Z" fill="#3F3D56"/>
<path d="M475.837 141.703H327.387V149.125H475.837V141.703Z" fill="#E0F2FF"/>
<path d="M479.886 146.426H330.086V137.654H479.886V146.426ZM330.874 145.629H479.098V138.452H330.874V145.629Z" fill="#3F3D56"/>
<path d="M479.212 116.061H420.507V107.289H479.212V116.061ZM421.295 115.264H478.424V108.087H421.295V115.264Z" fill="#3F3D56"/>
<path d="M239.33 139.678C232.991 139.678 226.794 137.778 221.523 134.219C216.252 130.66 212.144 125.602 209.718 119.683C207.292 113.765 206.657 107.253 207.894 100.97C209.131 94.6869 212.184 88.9157 216.666 84.386C221.149 79.8563 226.86 76.7715 233.077 75.5218C239.295 74.272 245.739 74.9134 251.596 77.3649C257.453 79.8164 262.458 83.9678 265.98 89.2942C269.502 94.6205 271.382 100.883 271.382 107.289C271.372 115.876 267.992 124.109 261.984 130.181C255.975 136.253 247.828 139.668 239.33 139.678ZM239.33 75.8809C233.183 75.8809 227.174 77.723 222.063 81.1741C216.952 84.6252 212.968 89.5304 210.615 95.2694C208.263 101.008 207.648 107.323 208.847 113.416C210.046 119.509 213.006 125.105 217.353 129.497C221.7 133.89 227.238 136.881 233.267 138.093C239.296 139.305 245.545 138.683 251.224 136.306C256.903 133.928 261.758 129.903 265.173 124.738C268.588 119.573 270.411 113.501 270.411 107.289C270.401 98.9617 267.124 90.9785 261.297 85.0905C255.47 79.2024 247.57 75.8904 239.33 75.8809Z" fill="#3F3D56"/>
<path d="M504.732 323.704H366.403V325.054H504.732V323.704Z" fill="#3F3D56"/>
</svg>
